G04 #@! TF.GenerationSoftware,KiCad,Pcbnew,(5.1.4)-1*
G04 #@! TF.CreationDate,2022-04-19T23:21:49-04:00*
G04 #@! TF.ProjectId,K-75,4b2d3735-2e6b-4696-9361-645f70636258,rev?*
G04 #@! TF.SameCoordinates,Original*
G04 #@! TF.FileFunction,Legend,Bot*
G04 #@! TF.FilePolarity,Positive*
%FSLAX46Y46*%
G04 Gerber Fmt 4.6, Leading zero omitted, Abs format (unit mm)*
G04 Created by KiCad (PCBNEW (5.1.4)-1) date 2022-04-19 23:21:49*
%MOMM*%
%LPD*%
G04 APERTURE LIST*
%ADD10C,0.200000*%
%ADD11C,0.150000*%
%ADD12C,0.450000*%
%ADD13C,0.120000*%
G04 APERTURE END LIST*
D10*
X75151428Y-195214761D02*
X75151428Y-193214761D01*
X74484761Y-194643333D01*
X73818095Y-193214761D01*
X73818095Y-195214761D01*
X72008571Y-195214761D02*
X72008571Y-194167142D01*
X72103809Y-193976666D01*
X72294285Y-193881428D01*
X72675238Y-193881428D01*
X72865714Y-193976666D01*
X72008571Y-195119523D02*
X72199047Y-195214761D01*
X72675238Y-195214761D01*
X72865714Y-195119523D01*
X72960952Y-194929047D01*
X72960952Y-194738571D01*
X72865714Y-194548095D01*
X72675238Y-194452857D01*
X72199047Y-194452857D01*
X72008571Y-194357619D01*
X71246666Y-195214761D02*
X70199047Y-193881428D01*
X71246666Y-193881428D02*
X70199047Y-195214761D01*
X67913333Y-193214761D02*
X67913333Y-194833809D01*
X67818095Y-195024285D01*
X67722857Y-195119523D01*
X67532380Y-195214761D01*
X67151428Y-195214761D01*
X66960952Y-195119523D01*
X66865714Y-195024285D01*
X66770476Y-194833809D01*
X66770476Y-193214761D01*
X64960952Y-193881428D02*
X64960952Y-195500476D01*
X65056190Y-195690952D01*
X65151428Y-195786190D01*
X65341904Y-195881428D01*
X65627619Y-195881428D01*
X65818095Y-195786190D01*
X64960952Y-195119523D02*
X65151428Y-195214761D01*
X65532380Y-195214761D01*
X65722857Y-195119523D01*
X65818095Y-195024285D01*
X65913333Y-194833809D01*
X65913333Y-194262380D01*
X65818095Y-194071904D01*
X65722857Y-193976666D01*
X65532380Y-193881428D01*
X65151428Y-193881428D01*
X64960952Y-193976666D01*
X63246666Y-195119523D02*
X63437142Y-195214761D01*
X63818095Y-195214761D01*
X64008571Y-195119523D01*
X64103809Y-194929047D01*
X64103809Y-194167142D01*
X64008571Y-193976666D01*
X63818095Y-193881428D01*
X63437142Y-193881428D01*
X63246666Y-193976666D01*
X63151428Y-194167142D01*
X63151428Y-194357619D01*
X64103809Y-194548095D01*
X62294285Y-195214761D02*
X62294285Y-193881428D01*
X62294285Y-194262380D02*
X62199047Y-194071904D01*
X62103809Y-193976666D01*
X61913333Y-193881428D01*
X61722857Y-193881428D01*
D11*
X373179619Y-77541380D02*
X373179619Y-76541380D01*
X372608190Y-77541380D02*
X373036761Y-76969952D01*
X372608190Y-76541380D02*
X373179619Y-77112809D01*
X372179619Y-77160428D02*
X371417714Y-77160428D01*
X371036761Y-76541380D02*
X370370095Y-76541380D01*
X370798666Y-77541380D01*
X369512952Y-76541380D02*
X369989142Y-76541380D01*
X370036761Y-77017571D01*
X369989142Y-76969952D01*
X369893904Y-76922333D01*
X369655809Y-76922333D01*
X369560571Y-76969952D01*
X369512952Y-77017571D01*
X369465333Y-77112809D01*
X369465333Y-77350904D01*
X369512952Y-77446142D01*
X369560571Y-77493761D01*
X369655809Y-77541380D01*
X369893904Y-77541380D01*
X369989142Y-77493761D01*
X370036761Y-77446142D01*
X368274857Y-77541380D02*
X368274857Y-76541380D01*
X367703428Y-77541380D02*
X368132000Y-76969952D01*
X367703428Y-76541380D02*
X368274857Y-77112809D01*
X366893904Y-77493761D02*
X366989142Y-77541380D01*
X367179619Y-77541380D01*
X367274857Y-77493761D01*
X367322476Y-77398523D01*
X367322476Y-77017571D01*
X367274857Y-76922333D01*
X367179619Y-76874714D01*
X366989142Y-76874714D01*
X366893904Y-76922333D01*
X366846285Y-77017571D01*
X366846285Y-77112809D01*
X367322476Y-77208047D01*
X366512952Y-76874714D02*
X366274857Y-77541380D01*
X366036761Y-76874714D02*
X366274857Y-77541380D01*
X366370095Y-77779476D01*
X366417714Y-77827095D01*
X366512952Y-77874714D01*
X365655809Y-77541380D02*
X365655809Y-76541380D01*
X365655809Y-76922333D02*
X365560571Y-76874714D01*
X365370095Y-76874714D01*
X365274857Y-76922333D01*
X365227238Y-76969952D01*
X365179619Y-77065190D01*
X365179619Y-77350904D01*
X365227238Y-77446142D01*
X365274857Y-77493761D01*
X365370095Y-77541380D01*
X365560571Y-77541380D01*
X365655809Y-77493761D01*
X364608190Y-77541380D02*
X364703428Y-77493761D01*
X364751047Y-77446142D01*
X364798666Y-77350904D01*
X364798666Y-77065190D01*
X364751047Y-76969952D01*
X364703428Y-76922333D01*
X364608190Y-76874714D01*
X364465333Y-76874714D01*
X364370095Y-76922333D01*
X364322476Y-76969952D01*
X364274857Y-77065190D01*
X364274857Y-77350904D01*
X364322476Y-77446142D01*
X364370095Y-77493761D01*
X364465333Y-77541380D01*
X364608190Y-77541380D01*
X363417714Y-77541380D02*
X363417714Y-77017571D01*
X363465333Y-76922333D01*
X363560571Y-76874714D01*
X363751047Y-76874714D01*
X363846285Y-76922333D01*
X363417714Y-77493761D02*
X363512952Y-77541380D01*
X363751047Y-77541380D01*
X363846285Y-77493761D01*
X363893904Y-77398523D01*
X363893904Y-77303285D01*
X363846285Y-77208047D01*
X363751047Y-77160428D01*
X363512952Y-77160428D01*
X363417714Y-77112809D01*
X362941523Y-77541380D02*
X362941523Y-76874714D01*
X362941523Y-77065190D02*
X362893904Y-76969952D01*
X362846285Y-76922333D01*
X362751047Y-76874714D01*
X362655809Y-76874714D01*
X361893904Y-77541380D02*
X361893904Y-76541380D01*
X361893904Y-77493761D02*
X361989142Y-77541380D01*
X362179619Y-77541380D01*
X362274857Y-77493761D01*
X362322476Y-77446142D01*
X362370095Y-77350904D01*
X362370095Y-77065190D01*
X362322476Y-76969952D01*
X362274857Y-76922333D01*
X362179619Y-76874714D01*
X361989142Y-76874714D01*
X361893904Y-76922333D01*
X360655809Y-77541380D02*
X360655809Y-76541380D01*
X360274857Y-76541380D01*
X360179619Y-76589000D01*
X360132000Y-76636619D01*
X360084380Y-76731857D01*
X360084380Y-76874714D01*
X360132000Y-76969952D01*
X360179619Y-77017571D01*
X360274857Y-77065190D01*
X360655809Y-77065190D01*
X359084380Y-77446142D02*
X359132000Y-77493761D01*
X359274857Y-77541380D01*
X359370095Y-77541380D01*
X359512952Y-77493761D01*
X359608190Y-77398523D01*
X359655809Y-77303285D01*
X359703428Y-77112809D01*
X359703428Y-76969952D01*
X359655809Y-76779476D01*
X359608190Y-76684238D01*
X359512952Y-76589000D01*
X359370095Y-76541380D01*
X359274857Y-76541380D01*
X359132000Y-76589000D01*
X359084380Y-76636619D01*
X358322476Y-77017571D02*
X358179619Y-77065190D01*
X358132000Y-77112809D01*
X358084380Y-77208047D01*
X358084380Y-77350904D01*
X358132000Y-77446142D01*
X358179619Y-77493761D01*
X358274857Y-77541380D01*
X358655809Y-77541380D01*
X358655809Y-76541380D01*
X358322476Y-76541380D01*
X358227238Y-76589000D01*
X358179619Y-76636619D01*
X358132000Y-76731857D01*
X358132000Y-76827095D01*
X358179619Y-76922333D01*
X358227238Y-76969952D01*
X358322476Y-77017571D01*
X358655809Y-77017571D01*
X356322476Y-77541380D02*
X356655809Y-77065190D01*
X356893904Y-77541380D02*
X356893904Y-76541380D01*
X356512952Y-76541380D01*
X356417714Y-76589000D01*
X356370095Y-76636619D01*
X356322476Y-76731857D01*
X356322476Y-76874714D01*
X356370095Y-76969952D01*
X356417714Y-77017571D01*
X356512952Y-77065190D01*
X356893904Y-77065190D01*
X355512952Y-77493761D02*
X355608190Y-77541380D01*
X355798666Y-77541380D01*
X355893904Y-77493761D01*
X355941523Y-77398523D01*
X355941523Y-77017571D01*
X355893904Y-76922333D01*
X355798666Y-76874714D01*
X355608190Y-76874714D01*
X355512952Y-76922333D01*
X355465333Y-77017571D01*
X355465333Y-77112809D01*
X355941523Y-77208047D01*
X355132000Y-76874714D02*
X354893904Y-77541380D01*
X354655809Y-76874714D01*
X352989142Y-77541380D02*
X353560571Y-77541380D01*
X353274857Y-77541380D02*
X353274857Y-76541380D01*
X353370095Y-76684238D01*
X353465333Y-76779476D01*
X353560571Y-76827095D01*
X352560571Y-77446142D02*
X352512952Y-77493761D01*
X352560571Y-77541380D01*
X352608190Y-77493761D01*
X352560571Y-77446142D01*
X352560571Y-77541380D01*
X351893904Y-76541380D02*
X351798666Y-76541380D01*
X351703428Y-76589000D01*
X351655809Y-76636619D01*
X351608190Y-76731857D01*
X351560571Y-76922333D01*
X351560571Y-77160428D01*
X351608190Y-77350904D01*
X351655809Y-77446142D01*
X351703428Y-77493761D01*
X351798666Y-77541380D01*
X351893904Y-77541380D01*
X351989142Y-77493761D01*
X352036761Y-77446142D01*
X352084380Y-77350904D01*
X352132000Y-77160428D01*
X352132000Y-76922333D01*
X352084380Y-76731857D01*
X352036761Y-76636619D01*
X351989142Y-76589000D01*
X351893904Y-76541380D01*
X349846285Y-77541380D02*
X350417714Y-77541380D01*
X350132000Y-77541380D02*
X350132000Y-76541380D01*
X350227238Y-76684238D01*
X350322476Y-76779476D01*
X350417714Y-76827095D01*
X349274857Y-76969952D02*
X349370095Y-76922333D01*
X349417714Y-76874714D01*
X349465333Y-76779476D01*
X349465333Y-76731857D01*
X349417714Y-76636619D01*
X349370095Y-76589000D01*
X349274857Y-76541380D01*
X349084380Y-76541380D01*
X348989142Y-76589000D01*
X348941523Y-76636619D01*
X348893904Y-76731857D01*
X348893904Y-76779476D01*
X348941523Y-76874714D01*
X348989142Y-76922333D01*
X349084380Y-76969952D01*
X349274857Y-76969952D01*
X349370095Y-77017571D01*
X349417714Y-77065190D01*
X349465333Y-77160428D01*
X349465333Y-77350904D01*
X349417714Y-77446142D01*
X349370095Y-77493761D01*
X349274857Y-77541380D01*
X349084380Y-77541380D01*
X348989142Y-77493761D01*
X348941523Y-77446142D01*
X348893904Y-77350904D01*
X348893904Y-77160428D01*
X348941523Y-77065190D01*
X348989142Y-77017571D01*
X349084380Y-76969952D01*
X347751047Y-76493761D02*
X348608190Y-77779476D01*
X346989142Y-76874714D02*
X346989142Y-77541380D01*
X347227238Y-76493761D02*
X347465333Y-77208047D01*
X346846285Y-77208047D01*
X345751047Y-76493761D02*
X346608190Y-77779476D01*
X345465333Y-76636619D02*
X345417714Y-76589000D01*
X345322476Y-76541380D01*
X345084380Y-76541380D01*
X344989142Y-76589000D01*
X344941523Y-76636619D01*
X344893904Y-76731857D01*
X344893904Y-76827095D01*
X344941523Y-76969952D01*
X345512952Y-77541380D01*
X344893904Y-77541380D01*
X344274857Y-76541380D02*
X344179619Y-76541380D01*
X344084380Y-76589000D01*
X344036761Y-76636619D01*
X343989142Y-76731857D01*
X343941523Y-76922333D01*
X343941523Y-77160428D01*
X343989142Y-77350904D01*
X344036761Y-77446142D01*
X344084380Y-77493761D01*
X344179619Y-77541380D01*
X344274857Y-77541380D01*
X344370095Y-77493761D01*
X344417714Y-77446142D01*
X344465333Y-77350904D01*
X344512952Y-77160428D01*
X344512952Y-76922333D01*
X344465333Y-76731857D01*
X344417714Y-76636619D01*
X344370095Y-76589000D01*
X344274857Y-76541380D01*
X343560571Y-76636619D02*
X343512952Y-76589000D01*
X343417714Y-76541380D01*
X343179619Y-76541380D01*
X343084380Y-76589000D01*
X343036761Y-76636619D01*
X342989142Y-76731857D01*
X342989142Y-76827095D01*
X343036761Y-76969952D01*
X343608190Y-77541380D01*
X342989142Y-77541380D01*
X342608190Y-76636619D02*
X342560571Y-76589000D01*
X342465333Y-76541380D01*
X342227238Y-76541380D01*
X342132000Y-76589000D01*
X342084380Y-76636619D01*
X342036761Y-76731857D01*
X342036761Y-76827095D01*
X342084380Y-76969952D01*
X342655809Y-77541380D01*
X342036761Y-77541380D01*
D12*
X104074666Y-99504047D02*
X104074666Y-91504047D01*
X99503238Y-99504047D02*
X102931809Y-94932619D01*
X99503238Y-91504047D02*
X104074666Y-96075476D01*
X96074666Y-96456428D02*
X89979428Y-96456428D01*
X86931809Y-91504047D02*
X81598476Y-91504047D01*
X85027047Y-99504047D01*
X74741333Y-91504047D02*
X78550857Y-91504047D01*
X78931809Y-95313571D01*
X78550857Y-94932619D01*
X77788952Y-94551666D01*
X75884190Y-94551666D01*
X75122285Y-94932619D01*
X74741333Y-95313571D01*
X74360380Y-96075476D01*
X74360380Y-97980238D01*
X74741333Y-98742142D01*
X75122285Y-99123095D01*
X75884190Y-99504047D01*
X77788952Y-99504047D01*
X78550857Y-99123095D01*
X78931809Y-98742142D01*
D13*
X54451000Y-84615000D02*
X55601000Y-84615000D01*
X54451000Y-91915000D02*
X54451000Y-84615000D01*
X59951000Y-91915000D02*
X59951000Y-84615000D01*
X368852000Y-185199000D02*
X370002000Y-185199000D01*
X368852000Y-192499000D02*
X368852000Y-185199000D01*
X374352000Y-192499000D02*
X374352000Y-185199000D01*
X54400000Y-113571000D02*
X55550000Y-113571000D01*
X54400000Y-120871000D02*
X54400000Y-113571000D01*
X59900000Y-120871000D02*
X59900000Y-113571000D01*
X369309000Y-151761000D02*
X370459000Y-151761000D01*
X369309000Y-159061000D02*
X369309000Y-151761000D01*
X374809000Y-159061000D02*
X374809000Y-151761000D01*
X54400000Y-151798000D02*
X55550000Y-151798000D01*
X54400000Y-159098000D02*
X54400000Y-151798000D01*
X59900000Y-159098000D02*
X59900000Y-151798000D01*
X369360000Y-113571000D02*
X370510000Y-113571000D01*
X369360000Y-120871000D02*
X369360000Y-113571000D01*
X374860000Y-120871000D02*
X374860000Y-113571000D01*
X54273000Y-185199000D02*
X55423000Y-185199000D01*
X54273000Y-192499000D02*
X54273000Y-185199000D01*
X59773000Y-192499000D02*
X59773000Y-185199000D01*
X367155000Y-195336279D02*
X367155000Y-195010721D01*
X368175000Y-195336279D02*
X368175000Y-195010721D01*
X372247279Y-93093000D02*
X371921721Y-93093000D01*
X372247279Y-92073000D02*
X371921721Y-92073000D01*
X57312779Y-182120000D02*
X56987221Y-182120000D01*
X57312779Y-181100000D02*
X56987221Y-181100000D01*
X57439779Y-147703000D02*
X57114221Y-147703000D01*
X57439779Y-146683000D02*
X57114221Y-146683000D01*
X372247279Y-125859000D02*
X371921721Y-125859000D01*
X372247279Y-124839000D02*
X371921721Y-124839000D01*
X372044279Y-163832000D02*
X371718721Y-163832000D01*
X372044279Y-162812000D02*
X371718721Y-162812000D01*
X57185779Y-110619000D02*
X56860221Y-110619000D01*
X57185779Y-109599000D02*
X56860221Y-109599000D01*
X56169779Y-80520000D02*
X55844221Y-80520000D01*
X56169779Y-79500000D02*
X55844221Y-79500000D01*
X369360000Y-80932000D02*
X370510000Y-80932000D01*
X369360000Y-88232000D02*
X369360000Y-80932000D01*
X374860000Y-88232000D02*
X374860000Y-80932000D01*
X363331000Y-195290000D02*
X363331000Y-191390000D01*
X361331000Y-195290000D02*
X361331000Y-191390000D01*
X363331000Y-195290000D02*
X361331000Y-195290000D01*
X344281000Y-195290000D02*
X344281000Y-191390000D01*
X342281000Y-195290000D02*
X342281000Y-191390000D01*
X344281000Y-195290000D02*
X342281000Y-195290000D01*
X325231000Y-195290000D02*
X325231000Y-191390000D01*
X323231000Y-195290000D02*
X323231000Y-191390000D01*
X325231000Y-195290000D02*
X323231000Y-195290000D01*
X301355000Y-190591000D02*
X301355000Y-186691000D01*
X299355000Y-190591000D02*
X299355000Y-186691000D01*
X301355000Y-190591000D02*
X299355000Y-190591000D01*
X282305000Y-190591000D02*
X282305000Y-186691000D01*
X280305000Y-190591000D02*
X280305000Y-186691000D01*
X282305000Y-190591000D02*
X280305000Y-190591000D01*
X263382000Y-190591000D02*
X263382000Y-186691000D01*
X261382000Y-190591000D02*
X261382000Y-186691000D01*
X263382000Y-190591000D02*
X261382000Y-190591000D01*
X194294000Y-190591000D02*
X194294000Y-186691000D01*
X192294000Y-190591000D02*
X192294000Y-186691000D01*
X194294000Y-190591000D02*
X192294000Y-190591000D01*
X122793000Y-190590000D02*
X122793000Y-186690000D01*
X120793000Y-190590000D02*
X120793000Y-186690000D01*
X122793000Y-190590000D02*
X120793000Y-190590000D01*
X98917000Y-190591000D02*
X98917000Y-186691000D01*
X96917000Y-190591000D02*
X96917000Y-186691000D01*
X98917000Y-190591000D02*
X96917000Y-190591000D01*
X75168000Y-190590000D02*
X75168000Y-186690000D01*
X73168000Y-190590000D02*
X73168000Y-186690000D01*
X75168000Y-190590000D02*
X73168000Y-190590000D01*
X368030000Y-171541000D02*
X368030000Y-167641000D01*
X366030000Y-171541000D02*
X366030000Y-167641000D01*
X368030000Y-171541000D02*
X366030000Y-171541000D01*
X344281000Y-176240000D02*
X344281000Y-172340000D01*
X342281000Y-176240000D02*
X342281000Y-172340000D01*
X344281000Y-176240000D02*
X342281000Y-176240000D01*
X313293000Y-171541000D02*
X313293000Y-167641000D01*
X311293000Y-171541000D02*
X311293000Y-167641000D01*
X313293000Y-171541000D02*
X311293000Y-171541000D01*
X287131000Y-171541000D02*
X287131000Y-167641000D01*
X285131000Y-171541000D02*
X285131000Y-167641000D01*
X287131000Y-171541000D02*
X285131000Y-171541000D01*
X268081000Y-171541000D02*
X268081000Y-167641000D01*
X266081000Y-171541000D02*
X266081000Y-167641000D01*
X268081000Y-171541000D02*
X266081000Y-171541000D01*
X249031000Y-171541000D02*
X249031000Y-167641000D01*
X247031000Y-171541000D02*
X247031000Y-167641000D01*
X249031000Y-171541000D02*
X247031000Y-171541000D01*
X229981000Y-171541000D02*
X229981000Y-167641000D01*
X227981000Y-171541000D02*
X227981000Y-167641000D01*
X229981000Y-171541000D02*
X227981000Y-171541000D01*
X210931000Y-171541000D02*
X210931000Y-167641000D01*
X208931000Y-171541000D02*
X208931000Y-167641000D01*
X210931000Y-171541000D02*
X208931000Y-171541000D01*
X191881000Y-171541000D02*
X191881000Y-167641000D01*
X189881000Y-171541000D02*
X189881000Y-167641000D01*
X191881000Y-171541000D02*
X189881000Y-171541000D01*
X172831000Y-171541000D02*
X172831000Y-167641000D01*
X170831000Y-171541000D02*
X170831000Y-167641000D01*
X172831000Y-171541000D02*
X170831000Y-171541000D01*
X153908000Y-171541000D02*
X153908000Y-167641000D01*
X151908000Y-171541000D02*
X151908000Y-167641000D01*
X153908000Y-171541000D02*
X151908000Y-171541000D01*
X134731000Y-171541000D02*
X134731000Y-167641000D01*
X132731000Y-171541000D02*
X132731000Y-167641000D01*
X134731000Y-171541000D02*
X132731000Y-171541000D01*
X115681000Y-171541000D02*
X115681000Y-167641000D01*
X113681000Y-171541000D02*
X113681000Y-167641000D01*
X115681000Y-171541000D02*
X113681000Y-171541000D01*
X84693000Y-171541000D02*
X84693000Y-167641000D01*
X82693000Y-171541000D02*
X82693000Y-167641000D01*
X84693000Y-171541000D02*
X82693000Y-171541000D01*
X368030000Y-152491000D02*
X368030000Y-148591000D01*
X366030000Y-152491000D02*
X366030000Y-148591000D01*
X368030000Y-152491000D02*
X366030000Y-152491000D01*
X327644000Y-152491000D02*
X327644000Y-148591000D01*
X325644000Y-152491000D02*
X325644000Y-148591000D01*
X327644000Y-152491000D02*
X325644000Y-152491000D01*
X296656000Y-152491000D02*
X296656000Y-148591000D01*
X294656000Y-152491000D02*
X294656000Y-148591000D01*
X296656000Y-152491000D02*
X294656000Y-152491000D01*
X277606000Y-152491000D02*
X277606000Y-148591000D01*
X275606000Y-152491000D02*
X275606000Y-148591000D01*
X277606000Y-152491000D02*
X275606000Y-152491000D01*
X258556000Y-152491000D02*
X258556000Y-148591000D01*
X256556000Y-152491000D02*
X256556000Y-148591000D01*
X258556000Y-152491000D02*
X256556000Y-152491000D01*
X239506000Y-152491000D02*
X239506000Y-148591000D01*
X237506000Y-152491000D02*
X237506000Y-148591000D01*
X239506000Y-152491000D02*
X237506000Y-152491000D01*
X220456000Y-152491000D02*
X220456000Y-148591000D01*
X218456000Y-152491000D02*
X218456000Y-148591000D01*
X220456000Y-152491000D02*
X218456000Y-152491000D01*
X201406000Y-152491000D02*
X201406000Y-148591000D01*
X199406000Y-152491000D02*
X199406000Y-148591000D01*
X201406000Y-152491000D02*
X199406000Y-152491000D01*
X182356000Y-152491000D02*
X182356000Y-148591000D01*
X180356000Y-152491000D02*
X180356000Y-148591000D01*
X182356000Y-152491000D02*
X180356000Y-152491000D01*
X163306000Y-152491000D02*
X163306000Y-148591000D01*
X161306000Y-152491000D02*
X161306000Y-148591000D01*
X163306000Y-152491000D02*
X161306000Y-152491000D01*
X144256000Y-152491000D02*
X144256000Y-148591000D01*
X142256000Y-152491000D02*
X142256000Y-148591000D01*
X144256000Y-152491000D02*
X142256000Y-152491000D01*
X125206000Y-152491000D02*
X125206000Y-148591000D01*
X123206000Y-152491000D02*
X123206000Y-148591000D01*
X125206000Y-152491000D02*
X123206000Y-152491000D01*
X106156000Y-152491000D02*
X106156000Y-148591000D01*
X104156000Y-152491000D02*
X104156000Y-148591000D01*
X106156000Y-152491000D02*
X104156000Y-152491000D01*
X79994000Y-152491000D02*
X79994000Y-148591000D01*
X77994000Y-152491000D02*
X77994000Y-148591000D01*
X79994000Y-152491000D02*
X77994000Y-152491000D01*
X368030000Y-133441000D02*
X368030000Y-129541000D01*
X366030000Y-133441000D02*
X366030000Y-129541000D01*
X368030000Y-133441000D02*
X366030000Y-133441000D01*
X334756000Y-133441000D02*
X334756000Y-129541000D01*
X332756000Y-133441000D02*
X332756000Y-129541000D01*
X334756000Y-133441000D02*
X332756000Y-133441000D01*
X310880000Y-133441000D02*
X310880000Y-129541000D01*
X308880000Y-133441000D02*
X308880000Y-129541000D01*
X310880000Y-133441000D02*
X308880000Y-133441000D01*
X291830000Y-133441000D02*
X291830000Y-129541000D01*
X289830000Y-133441000D02*
X289830000Y-129541000D01*
X291830000Y-133441000D02*
X289830000Y-133441000D01*
X272780000Y-133441000D02*
X272780000Y-129541000D01*
X270780000Y-133441000D02*
X270780000Y-129541000D01*
X272780000Y-133441000D02*
X270780000Y-133441000D01*
X253730000Y-133441000D02*
X253730000Y-129541000D01*
X251730000Y-133441000D02*
X251730000Y-129541000D01*
X253730000Y-133441000D02*
X251730000Y-133441000D01*
X234680000Y-133441000D02*
X234680000Y-129541000D01*
X232680000Y-133441000D02*
X232680000Y-129541000D01*
X234680000Y-133441000D02*
X232680000Y-133441000D01*
X215630000Y-133441000D02*
X215630000Y-129541000D01*
X213630000Y-133441000D02*
X213630000Y-129541000D01*
X215630000Y-133441000D02*
X213630000Y-133441000D01*
X196580000Y-133441000D02*
X196580000Y-129541000D01*
X194580000Y-133441000D02*
X194580000Y-129541000D01*
X196580000Y-133441000D02*
X194580000Y-133441000D01*
X177530000Y-133441000D02*
X177530000Y-129541000D01*
X175530000Y-133441000D02*
X175530000Y-129541000D01*
X177530000Y-133441000D02*
X175530000Y-133441000D01*
X158480000Y-133441000D02*
X158480000Y-129541000D01*
X156480000Y-133441000D02*
X156480000Y-129541000D01*
X158480000Y-133441000D02*
X156480000Y-133441000D01*
X139430000Y-133441000D02*
X139430000Y-129541000D01*
X137430000Y-133441000D02*
X137430000Y-129541000D01*
X139430000Y-133441000D02*
X137430000Y-133441000D01*
X120380000Y-133441000D02*
X120380000Y-129541000D01*
X118380000Y-133441000D02*
X118380000Y-129541000D01*
X120380000Y-133441000D02*
X118380000Y-133441000D01*
X101330000Y-133441000D02*
X101330000Y-129541000D01*
X99330000Y-133441000D02*
X99330000Y-129541000D01*
X101330000Y-133441000D02*
X99330000Y-133441000D01*
X77581000Y-133441000D02*
X77581000Y-129541000D01*
X75581000Y-133441000D02*
X75581000Y-129541000D01*
X77581000Y-133441000D02*
X75581000Y-133441000D01*
X368030000Y-114391000D02*
X368030000Y-110491000D01*
X366030000Y-114391000D02*
X366030000Y-110491000D01*
X368030000Y-114391000D02*
X366030000Y-114391000D01*
X329930000Y-114391000D02*
X329930000Y-110491000D01*
X327930000Y-114391000D02*
X327930000Y-110491000D01*
X329930000Y-114391000D02*
X327930000Y-114391000D01*
X301355000Y-114391000D02*
X301355000Y-110491000D01*
X299355000Y-114391000D02*
X299355000Y-110491000D01*
X301355000Y-114391000D02*
X299355000Y-114391000D01*
X282305000Y-114391000D02*
X282305000Y-110491000D01*
X280305000Y-114391000D02*
X280305000Y-110491000D01*
X282305000Y-114391000D02*
X280305000Y-114391000D01*
X263255000Y-114391000D02*
X263255000Y-110491000D01*
X261255000Y-114391000D02*
X261255000Y-110491000D01*
X263255000Y-114391000D02*
X261255000Y-114391000D01*
X244205000Y-114391000D02*
X244205000Y-110491000D01*
X242205000Y-114391000D02*
X242205000Y-110491000D01*
X244205000Y-114391000D02*
X242205000Y-114391000D01*
X225155000Y-114391000D02*
X225155000Y-110491000D01*
X223155000Y-114391000D02*
X223155000Y-110491000D01*
X225155000Y-114391000D02*
X223155000Y-114391000D01*
X206105000Y-114391000D02*
X206105000Y-110491000D01*
X204105000Y-114391000D02*
X204105000Y-110491000D01*
X206105000Y-114391000D02*
X204105000Y-114391000D01*
X187055000Y-114391000D02*
X187055000Y-110491000D01*
X185055000Y-114391000D02*
X185055000Y-110491000D01*
X187055000Y-114391000D02*
X185055000Y-114391000D01*
X168005000Y-114391000D02*
X168005000Y-110491000D01*
X166005000Y-114391000D02*
X166005000Y-110491000D01*
X168005000Y-114391000D02*
X166005000Y-114391000D01*
X148955000Y-114391000D02*
X148955000Y-110491000D01*
X146955000Y-114391000D02*
X146955000Y-110491000D01*
X148955000Y-114391000D02*
X146955000Y-114391000D01*
X129905000Y-114391000D02*
X129905000Y-110491000D01*
X127905000Y-114391000D02*
X127905000Y-110491000D01*
X129905000Y-114391000D02*
X127905000Y-114391000D01*
X110855000Y-114391000D02*
X110855000Y-110491000D01*
X108855000Y-114391000D02*
X108855000Y-110491000D01*
X110855000Y-114391000D02*
X108855000Y-114391000D01*
X91805000Y-114391000D02*
X91805000Y-110491000D01*
X89805000Y-114391000D02*
X89805000Y-110491000D01*
X91805000Y-114391000D02*
X89805000Y-114391000D01*
X72755000Y-114391000D02*
X72755000Y-110491000D01*
X70755000Y-114391000D02*
X70755000Y-110491000D01*
X72755000Y-114391000D02*
X70755000Y-114391000D01*
X339455000Y-90515000D02*
X339455000Y-86615000D01*
X337455000Y-90515000D02*
X337455000Y-86615000D01*
X339455000Y-90515000D02*
X337455000Y-90515000D01*
X315706000Y-90515000D02*
X315706000Y-86615000D01*
X313706000Y-90515000D02*
X313706000Y-86615000D01*
X315706000Y-90515000D02*
X313706000Y-90515000D01*
X296656000Y-90515000D02*
X296656000Y-86615000D01*
X294656000Y-90515000D02*
X294656000Y-86615000D01*
X296656000Y-90515000D02*
X294656000Y-90515000D01*
X277606000Y-90515000D02*
X277606000Y-86615000D01*
X275606000Y-90515000D02*
X275606000Y-86615000D01*
X277606000Y-90515000D02*
X275606000Y-90515000D01*
X258556000Y-90515000D02*
X258556000Y-86615000D01*
X256556000Y-90515000D02*
X256556000Y-86615000D01*
X258556000Y-90515000D02*
X256556000Y-90515000D01*
X234680000Y-90515000D02*
X234680000Y-86615000D01*
X232680000Y-90515000D02*
X232680000Y-86615000D01*
X234680000Y-90515000D02*
X232680000Y-90515000D01*
X215630000Y-90515000D02*
X215630000Y-86615000D01*
X213630000Y-90515000D02*
X213630000Y-86615000D01*
X215630000Y-90515000D02*
X213630000Y-90515000D01*
X196580000Y-90515000D02*
X196580000Y-86615000D01*
X194580000Y-90515000D02*
X194580000Y-86615000D01*
X196580000Y-90515000D02*
X194580000Y-90515000D01*
X177530000Y-90515000D02*
X177530000Y-86615000D01*
X175530000Y-90515000D02*
X175530000Y-86615000D01*
X177530000Y-90515000D02*
X175530000Y-90515000D01*
X153781000Y-90515000D02*
X153781000Y-86615000D01*
X151781000Y-90515000D02*
X151781000Y-86615000D01*
X153781000Y-90515000D02*
X151781000Y-90515000D01*
X134731000Y-90516000D02*
X134731000Y-86616000D01*
X132731000Y-90516000D02*
X132731000Y-86616000D01*
X134731000Y-90516000D02*
X132731000Y-90516000D01*
X115681000Y-90515000D02*
X115681000Y-86615000D01*
X113681000Y-90515000D02*
X113681000Y-86615000D01*
X115681000Y-90515000D02*
X113681000Y-90515000D01*
X96631000Y-90515000D02*
X96631000Y-86615000D01*
X94631000Y-90515000D02*
X94631000Y-86615000D01*
X96631000Y-90515000D02*
X94631000Y-90515000D01*
X72755000Y-90515000D02*
X72755000Y-86615000D01*
X70755000Y-90515000D02*
X70755000Y-86615000D01*
X72755000Y-90515000D02*
X70755000Y-90515000D01*
X340900000Y-156211000D02*
X344900000Y-156211000D01*
X340900000Y-159511000D02*
X340900000Y-156211000D01*
D11*
X349726000Y-143355000D02*
X351001000Y-143355000D01*
X339376000Y-142780000D02*
X340051000Y-142780000D01*
X339376000Y-153130000D02*
X340051000Y-153130000D01*
X349726000Y-153130000D02*
X349051000Y-153130000D01*
X349726000Y-142780000D02*
X349051000Y-142780000D01*
X349726000Y-153130000D02*
X349726000Y-152455000D01*
X339376000Y-153130000D02*
X339376000Y-152455000D01*
X339376000Y-142780000D02*
X339376000Y-143455000D01*
X349726000Y-142780000D02*
X349726000Y-143355000D01*
X351977000Y-171383000D02*
X351977000Y-166183000D01*
X351977000Y-166183000D02*
X346777000Y-166183000D01*
X346777000Y-166183000D02*
X346777000Y-171383000D01*
X346777000Y-171383000D02*
X351977000Y-171383000D01*
X350377000Y-168783000D02*
G75*
G03X350377000Y-168783000I-1000000J0D01*
G01*
D13*
X341713078Y-138124000D02*
X341195922Y-138124000D01*
X341713078Y-136704000D02*
X341195922Y-136704000D01*
X350191000Y-156849578D02*
X350191000Y-156332422D01*
X351611000Y-156849578D02*
X351611000Y-156332422D01*
D11*
X350475000Y-96853000D02*
X350475000Y-95853000D01*
X348075000Y-96853000D02*
X350475000Y-96853000D01*
X346275000Y-91853000D02*
X346275000Y-95853000D01*
X350475000Y-90853000D02*
X348075000Y-90853000D01*
X350475000Y-91853000D02*
X350475000Y-90853000D01*
D13*
X353947000Y-148016279D02*
X353947000Y-147690721D01*
X354967000Y-148016279D02*
X354967000Y-147690721D01*
X341340221Y-139063000D02*
X341665779Y-139063000D01*
X341340221Y-140083000D02*
X341665779Y-140083000D01*
X333885000Y-148554221D02*
X333885000Y-148879779D01*
X332865000Y-148554221D02*
X332865000Y-148879779D01*
X348015779Y-140210000D02*
X347690221Y-140210000D01*
X348015779Y-139190000D02*
X347690221Y-139190000D01*
X351915000Y-148016279D02*
X351915000Y-147690721D01*
X352935000Y-148016279D02*
X352935000Y-147690721D01*
X346454000Y-158049279D02*
X346454000Y-157723721D01*
X347474000Y-158049279D02*
X347474000Y-157723721D01*
X339473000Y-157723721D02*
X339473000Y-158049279D01*
X338453000Y-157723721D02*
X338453000Y-158049279D01*
D11*
X58237285Y-84526380D02*
X58237285Y-83526380D01*
X57999190Y-83526380D01*
X57856333Y-83574000D01*
X57761095Y-83669238D01*
X57713476Y-83764476D01*
X57665857Y-83954952D01*
X57665857Y-84097809D01*
X57713476Y-84288285D01*
X57761095Y-84383523D01*
X57856333Y-84478761D01*
X57999190Y-84526380D01*
X58237285Y-84526380D01*
X57189666Y-84526380D02*
X56999190Y-84526380D01*
X56903952Y-84478761D01*
X56856333Y-84431142D01*
X56761095Y-84288285D01*
X56713476Y-84097809D01*
X56713476Y-83716857D01*
X56761095Y-83621619D01*
X56808714Y-83574000D01*
X56903952Y-83526380D01*
X57094428Y-83526380D01*
X57189666Y-83574000D01*
X57237285Y-83621619D01*
X57284904Y-83716857D01*
X57284904Y-83954952D01*
X57237285Y-84050190D01*
X57189666Y-84097809D01*
X57094428Y-84145428D01*
X56903952Y-84145428D01*
X56808714Y-84097809D01*
X56761095Y-84050190D01*
X56713476Y-83954952D01*
X56094428Y-83526380D02*
X55999190Y-83526380D01*
X55903952Y-83574000D01*
X55856333Y-83621619D01*
X55808714Y-83716857D01*
X55761095Y-83907333D01*
X55761095Y-84145428D01*
X55808714Y-84335904D01*
X55856333Y-84431142D01*
X55903952Y-84478761D01*
X55999190Y-84526380D01*
X56094428Y-84526380D01*
X56189666Y-84478761D01*
X56237285Y-84431142D01*
X56284904Y-84335904D01*
X56332523Y-84145428D01*
X56332523Y-83907333D01*
X56284904Y-83716857D01*
X56237285Y-83621619D01*
X56189666Y-83574000D01*
X56094428Y-83526380D01*
X59253380Y-92700714D02*
X59253380Y-92129285D01*
X59253380Y-92415000D02*
X58253380Y-92415000D01*
X58396238Y-92319761D01*
X58491476Y-92224523D01*
X58539095Y-92129285D01*
X372816285Y-194381380D02*
X372816285Y-193381380D01*
X372578190Y-193381380D01*
X372435333Y-193429000D01*
X372340095Y-193524238D01*
X372292476Y-193619476D01*
X372244857Y-193809952D01*
X372244857Y-193952809D01*
X372292476Y-194143285D01*
X372340095Y-194238523D01*
X372435333Y-194333761D01*
X372578190Y-194381380D01*
X372816285Y-194381380D01*
X371673428Y-193809952D02*
X371768666Y-193762333D01*
X371816285Y-193714714D01*
X371863904Y-193619476D01*
X371863904Y-193571857D01*
X371816285Y-193476619D01*
X371768666Y-193429000D01*
X371673428Y-193381380D01*
X371482952Y-193381380D01*
X371387714Y-193429000D01*
X371340095Y-193476619D01*
X371292476Y-193571857D01*
X371292476Y-193619476D01*
X371340095Y-193714714D01*
X371387714Y-193762333D01*
X371482952Y-193809952D01*
X371673428Y-193809952D01*
X371768666Y-193857571D01*
X371816285Y-193905190D01*
X371863904Y-194000428D01*
X371863904Y-194190904D01*
X371816285Y-194286142D01*
X371768666Y-194333761D01*
X371673428Y-194381380D01*
X371482952Y-194381380D01*
X371387714Y-194333761D01*
X371340095Y-194286142D01*
X371292476Y-194190904D01*
X371292476Y-194000428D01*
X371340095Y-193905190D01*
X371387714Y-193857571D01*
X371482952Y-193809952D01*
X370816285Y-194381380D02*
X370625809Y-194381380D01*
X370530571Y-194333761D01*
X370482952Y-194286142D01*
X370387714Y-194143285D01*
X370340095Y-193952809D01*
X370340095Y-193571857D01*
X370387714Y-193476619D01*
X370435333Y-193429000D01*
X370530571Y-193381380D01*
X370721047Y-193381380D01*
X370816285Y-193429000D01*
X370863904Y-193476619D01*
X370911523Y-193571857D01*
X370911523Y-193809952D01*
X370863904Y-193905190D01*
X370816285Y-193952809D01*
X370721047Y-194000428D01*
X370530571Y-194000428D01*
X370435333Y-193952809D01*
X370387714Y-193905190D01*
X370340095Y-193809952D01*
X373654380Y-193284714D02*
X373654380Y-192713285D01*
X373654380Y-192999000D02*
X372654380Y-192999000D01*
X372797238Y-192903761D01*
X372892476Y-192808523D01*
X372940095Y-192713285D01*
X58364285Y-113482380D02*
X58364285Y-112482380D01*
X58126190Y-112482380D01*
X57983333Y-112530000D01*
X57888095Y-112625238D01*
X57840476Y-112720476D01*
X57792857Y-112910952D01*
X57792857Y-113053809D01*
X57840476Y-113244285D01*
X57888095Y-113339523D01*
X57983333Y-113434761D01*
X58126190Y-113482380D01*
X58364285Y-113482380D01*
X57221428Y-112910952D02*
X57316666Y-112863333D01*
X57364285Y-112815714D01*
X57411904Y-112720476D01*
X57411904Y-112672857D01*
X57364285Y-112577619D01*
X57316666Y-112530000D01*
X57221428Y-112482380D01*
X57030952Y-112482380D01*
X56935714Y-112530000D01*
X56888095Y-112577619D01*
X56840476Y-112672857D01*
X56840476Y-112720476D01*
X56888095Y-112815714D01*
X56935714Y-112863333D01*
X57030952Y-112910952D01*
X57221428Y-112910952D01*
X57316666Y-112958571D01*
X57364285Y-113006190D01*
X57411904Y-113101428D01*
X57411904Y-113291904D01*
X57364285Y-113387142D01*
X57316666Y-113434761D01*
X57221428Y-113482380D01*
X57030952Y-113482380D01*
X56935714Y-113434761D01*
X56888095Y-113387142D01*
X56840476Y-113291904D01*
X56840476Y-113101428D01*
X56888095Y-113006190D01*
X56935714Y-112958571D01*
X57030952Y-112910952D01*
X56269047Y-112910952D02*
X56364285Y-112863333D01*
X56411904Y-112815714D01*
X56459523Y-112720476D01*
X56459523Y-112672857D01*
X56411904Y-112577619D01*
X56364285Y-112530000D01*
X56269047Y-112482380D01*
X56078571Y-112482380D01*
X55983333Y-112530000D01*
X55935714Y-112577619D01*
X55888095Y-112672857D01*
X55888095Y-112720476D01*
X55935714Y-112815714D01*
X55983333Y-112863333D01*
X56078571Y-112910952D01*
X56269047Y-112910952D01*
X56364285Y-112958571D01*
X56411904Y-113006190D01*
X56459523Y-113101428D01*
X56459523Y-113291904D01*
X56411904Y-113387142D01*
X56364285Y-113434761D01*
X56269047Y-113482380D01*
X56078571Y-113482380D01*
X55983333Y-113434761D01*
X55935714Y-113387142D01*
X55888095Y-113291904D01*
X55888095Y-113101428D01*
X55935714Y-113006190D01*
X55983333Y-112958571D01*
X56078571Y-112910952D01*
X59202380Y-121656714D02*
X59202380Y-121085285D01*
X59202380Y-121371000D02*
X58202380Y-121371000D01*
X58345238Y-121275761D01*
X58440476Y-121180523D01*
X58488095Y-121085285D01*
X373070285Y-160853380D02*
X373070285Y-159853380D01*
X372832190Y-159853380D01*
X372689333Y-159901000D01*
X372594095Y-159996238D01*
X372546476Y-160091476D01*
X372498857Y-160281952D01*
X372498857Y-160424809D01*
X372546476Y-160615285D01*
X372594095Y-160710523D01*
X372689333Y-160805761D01*
X372832190Y-160853380D01*
X373070285Y-160853380D01*
X371927428Y-160281952D02*
X372022666Y-160234333D01*
X372070285Y-160186714D01*
X372117904Y-160091476D01*
X372117904Y-160043857D01*
X372070285Y-159948619D01*
X372022666Y-159901000D01*
X371927428Y-159853380D01*
X371736952Y-159853380D01*
X371641714Y-159901000D01*
X371594095Y-159948619D01*
X371546476Y-160043857D01*
X371546476Y-160091476D01*
X371594095Y-160186714D01*
X371641714Y-160234333D01*
X371736952Y-160281952D01*
X371927428Y-160281952D01*
X372022666Y-160329571D01*
X372070285Y-160377190D01*
X372117904Y-160472428D01*
X372117904Y-160662904D01*
X372070285Y-160758142D01*
X372022666Y-160805761D01*
X371927428Y-160853380D01*
X371736952Y-160853380D01*
X371641714Y-160805761D01*
X371594095Y-160758142D01*
X371546476Y-160662904D01*
X371546476Y-160472428D01*
X371594095Y-160377190D01*
X371641714Y-160329571D01*
X371736952Y-160281952D01*
X371213142Y-159853380D02*
X370546476Y-159853380D01*
X370975047Y-160853380D01*
X374111380Y-159846714D02*
X374111380Y-159275285D01*
X374111380Y-159561000D02*
X373111380Y-159561000D01*
X373254238Y-159465761D01*
X373349476Y-159370523D01*
X373397095Y-159275285D01*
X58491285Y-151328380D02*
X58491285Y-150328380D01*
X58253190Y-150328380D01*
X58110333Y-150376000D01*
X58015095Y-150471238D01*
X57967476Y-150566476D01*
X57919857Y-150756952D01*
X57919857Y-150899809D01*
X57967476Y-151090285D01*
X58015095Y-151185523D01*
X58110333Y-151280761D01*
X58253190Y-151328380D01*
X58491285Y-151328380D01*
X57348428Y-150756952D02*
X57443666Y-150709333D01*
X57491285Y-150661714D01*
X57538904Y-150566476D01*
X57538904Y-150518857D01*
X57491285Y-150423619D01*
X57443666Y-150376000D01*
X57348428Y-150328380D01*
X57157952Y-150328380D01*
X57062714Y-150376000D01*
X57015095Y-150423619D01*
X56967476Y-150518857D01*
X56967476Y-150566476D01*
X57015095Y-150661714D01*
X57062714Y-150709333D01*
X57157952Y-150756952D01*
X57348428Y-150756952D01*
X57443666Y-150804571D01*
X57491285Y-150852190D01*
X57538904Y-150947428D01*
X57538904Y-151137904D01*
X57491285Y-151233142D01*
X57443666Y-151280761D01*
X57348428Y-151328380D01*
X57157952Y-151328380D01*
X57062714Y-151280761D01*
X57015095Y-151233142D01*
X56967476Y-151137904D01*
X56967476Y-150947428D01*
X57015095Y-150852190D01*
X57062714Y-150804571D01*
X57157952Y-150756952D01*
X56110333Y-150328380D02*
X56300809Y-150328380D01*
X56396047Y-150376000D01*
X56443666Y-150423619D01*
X56538904Y-150566476D01*
X56586523Y-150756952D01*
X56586523Y-151137904D01*
X56538904Y-151233142D01*
X56491285Y-151280761D01*
X56396047Y-151328380D01*
X56205571Y-151328380D01*
X56110333Y-151280761D01*
X56062714Y-151233142D01*
X56015095Y-151137904D01*
X56015095Y-150899809D01*
X56062714Y-150804571D01*
X56110333Y-150756952D01*
X56205571Y-150709333D01*
X56396047Y-150709333D01*
X56491285Y-150756952D01*
X56538904Y-150804571D01*
X56586523Y-150899809D01*
X59202380Y-159883714D02*
X59202380Y-159312285D01*
X59202380Y-159598000D02*
X58202380Y-159598000D01*
X58345238Y-159502761D01*
X58440476Y-159407523D01*
X58488095Y-159312285D01*
X373324285Y-122245380D02*
X373324285Y-121245380D01*
X373086190Y-121245380D01*
X372943333Y-121293000D01*
X372848095Y-121388238D01*
X372800476Y-121483476D01*
X372752857Y-121673952D01*
X372752857Y-121816809D01*
X372800476Y-122007285D01*
X372848095Y-122102523D01*
X372943333Y-122197761D01*
X373086190Y-122245380D01*
X373324285Y-122245380D01*
X372181428Y-121673952D02*
X372276666Y-121626333D01*
X372324285Y-121578714D01*
X372371904Y-121483476D01*
X372371904Y-121435857D01*
X372324285Y-121340619D01*
X372276666Y-121293000D01*
X372181428Y-121245380D01*
X371990952Y-121245380D01*
X371895714Y-121293000D01*
X371848095Y-121340619D01*
X371800476Y-121435857D01*
X371800476Y-121483476D01*
X371848095Y-121578714D01*
X371895714Y-121626333D01*
X371990952Y-121673952D01*
X372181428Y-121673952D01*
X372276666Y-121721571D01*
X372324285Y-121769190D01*
X372371904Y-121864428D01*
X372371904Y-122054904D01*
X372324285Y-122150142D01*
X372276666Y-122197761D01*
X372181428Y-122245380D01*
X371990952Y-122245380D01*
X371895714Y-122197761D01*
X371848095Y-122150142D01*
X371800476Y-122054904D01*
X371800476Y-121864428D01*
X371848095Y-121769190D01*
X371895714Y-121721571D01*
X371990952Y-121673952D01*
X370895714Y-121245380D02*
X371371904Y-121245380D01*
X371419523Y-121721571D01*
X371371904Y-121673952D01*
X371276666Y-121626333D01*
X371038571Y-121626333D01*
X370943333Y-121673952D01*
X370895714Y-121721571D01*
X370848095Y-121816809D01*
X370848095Y-122054904D01*
X370895714Y-122150142D01*
X370943333Y-122197761D01*
X371038571Y-122245380D01*
X371276666Y-122245380D01*
X371371904Y-122197761D01*
X371419523Y-122150142D01*
X374162380Y-121656714D02*
X374162380Y-121085285D01*
X374162380Y-121371000D02*
X373162380Y-121371000D01*
X373305238Y-121275761D01*
X373400476Y-121180523D01*
X373448095Y-121085285D01*
X58237285Y-184729380D02*
X58237285Y-183729380D01*
X57999190Y-183729380D01*
X57856333Y-183777000D01*
X57761095Y-183872238D01*
X57713476Y-183967476D01*
X57665857Y-184157952D01*
X57665857Y-184300809D01*
X57713476Y-184491285D01*
X57761095Y-184586523D01*
X57856333Y-184681761D01*
X57999190Y-184729380D01*
X58237285Y-184729380D01*
X57094428Y-184157952D02*
X57189666Y-184110333D01*
X57237285Y-184062714D01*
X57284904Y-183967476D01*
X57284904Y-183919857D01*
X57237285Y-183824619D01*
X57189666Y-183777000D01*
X57094428Y-183729380D01*
X56903952Y-183729380D01*
X56808714Y-183777000D01*
X56761095Y-183824619D01*
X56713476Y-183919857D01*
X56713476Y-183967476D01*
X56761095Y-184062714D01*
X56808714Y-184110333D01*
X56903952Y-184157952D01*
X57094428Y-184157952D01*
X57189666Y-184205571D01*
X57237285Y-184253190D01*
X57284904Y-184348428D01*
X57284904Y-184538904D01*
X57237285Y-184634142D01*
X57189666Y-184681761D01*
X57094428Y-184729380D01*
X56903952Y-184729380D01*
X56808714Y-184681761D01*
X56761095Y-184634142D01*
X56713476Y-184538904D01*
X56713476Y-184348428D01*
X56761095Y-184253190D01*
X56808714Y-184205571D01*
X56903952Y-184157952D01*
X55856333Y-184062714D02*
X55856333Y-184729380D01*
X56094428Y-183681761D02*
X56332523Y-184396047D01*
X55713476Y-184396047D01*
X59075380Y-193284714D02*
X59075380Y-192713285D01*
X59075380Y-192999000D02*
X58075380Y-192999000D01*
X58218238Y-192903761D01*
X58313476Y-192808523D01*
X58361095Y-192713285D01*
X369452142Y-194530642D02*
X369499761Y-194483023D01*
X369547380Y-194340166D01*
X369547380Y-194244928D01*
X369499761Y-194102071D01*
X369404523Y-194006833D01*
X369309285Y-193959214D01*
X369118809Y-193911595D01*
X368975952Y-193911595D01*
X368785476Y-193959214D01*
X368690238Y-194006833D01*
X368595000Y-194102071D01*
X368547380Y-194244928D01*
X368547380Y-194340166D01*
X368595000Y-194483023D01*
X368642619Y-194530642D01*
X369547380Y-195483023D02*
X369547380Y-194911595D01*
X369547380Y-195197309D02*
X368547380Y-195197309D01*
X368690238Y-195102071D01*
X368785476Y-195006833D01*
X368833095Y-194911595D01*
X368547380Y-196387785D02*
X368547380Y-195911595D01*
X369023571Y-195863976D01*
X368975952Y-195911595D01*
X368928333Y-196006833D01*
X368928333Y-196244928D01*
X368975952Y-196340166D01*
X369023571Y-196387785D01*
X369118809Y-196435404D01*
X369356904Y-196435404D01*
X369452142Y-196387785D01*
X369499761Y-196340166D01*
X369547380Y-196244928D01*
X369547380Y-196006833D01*
X369499761Y-195911595D01*
X369452142Y-195863976D01*
X372727357Y-91510142D02*
X372774976Y-91557761D01*
X372917833Y-91605380D01*
X373013071Y-91605380D01*
X373155928Y-91557761D01*
X373251166Y-91462523D01*
X373298785Y-91367285D01*
X373346404Y-91176809D01*
X373346404Y-91033952D01*
X373298785Y-90843476D01*
X373251166Y-90748238D01*
X373155928Y-90653000D01*
X373013071Y-90605380D01*
X372917833Y-90605380D01*
X372774976Y-90653000D01*
X372727357Y-90700619D01*
X371774976Y-91605380D02*
X372346404Y-91605380D01*
X372060690Y-91605380D02*
X372060690Y-90605380D01*
X372155928Y-90748238D01*
X372251166Y-90843476D01*
X372346404Y-90891095D01*
X370917833Y-90938714D02*
X370917833Y-91605380D01*
X371155928Y-90557761D02*
X371394023Y-91272047D01*
X370774976Y-91272047D01*
X57792857Y-180537142D02*
X57840476Y-180584761D01*
X57983333Y-180632380D01*
X58078571Y-180632380D01*
X58221428Y-180584761D01*
X58316666Y-180489523D01*
X58364285Y-180394285D01*
X58411904Y-180203809D01*
X58411904Y-180060952D01*
X58364285Y-179870476D01*
X58316666Y-179775238D01*
X58221428Y-179680000D01*
X58078571Y-179632380D01*
X57983333Y-179632380D01*
X57840476Y-179680000D01*
X57792857Y-179727619D01*
X56840476Y-180632380D02*
X57411904Y-180632380D01*
X57126190Y-180632380D02*
X57126190Y-179632380D01*
X57221428Y-179775238D01*
X57316666Y-179870476D01*
X57411904Y-179918095D01*
X56507142Y-179632380D02*
X55888095Y-179632380D01*
X56221428Y-180013333D01*
X56078571Y-180013333D01*
X55983333Y-180060952D01*
X55935714Y-180108571D01*
X55888095Y-180203809D01*
X55888095Y-180441904D01*
X55935714Y-180537142D01*
X55983333Y-180584761D01*
X56078571Y-180632380D01*
X56364285Y-180632380D01*
X56459523Y-180584761D01*
X56507142Y-180537142D01*
X57919857Y-146120142D02*
X57967476Y-146167761D01*
X58110333Y-146215380D01*
X58205571Y-146215380D01*
X58348428Y-146167761D01*
X58443666Y-146072523D01*
X58491285Y-145977285D01*
X58538904Y-145786809D01*
X58538904Y-145643952D01*
X58491285Y-145453476D01*
X58443666Y-145358238D01*
X58348428Y-145263000D01*
X58205571Y-145215380D01*
X58110333Y-145215380D01*
X57967476Y-145263000D01*
X57919857Y-145310619D01*
X56967476Y-146215380D02*
X57538904Y-146215380D01*
X57253190Y-146215380D02*
X57253190Y-145215380D01*
X57348428Y-145358238D01*
X57443666Y-145453476D01*
X57538904Y-145501095D01*
X56586523Y-145310619D02*
X56538904Y-145263000D01*
X56443666Y-145215380D01*
X56205571Y-145215380D01*
X56110333Y-145263000D01*
X56062714Y-145310619D01*
X56015095Y-145405857D01*
X56015095Y-145501095D01*
X56062714Y-145643952D01*
X56634142Y-146215380D01*
X56015095Y-146215380D01*
X372727357Y-124276142D02*
X372774976Y-124323761D01*
X372917833Y-124371380D01*
X373013071Y-124371380D01*
X373155928Y-124323761D01*
X373251166Y-124228523D01*
X373298785Y-124133285D01*
X373346404Y-123942809D01*
X373346404Y-123799952D01*
X373298785Y-123609476D01*
X373251166Y-123514238D01*
X373155928Y-123419000D01*
X373013071Y-123371380D01*
X372917833Y-123371380D01*
X372774976Y-123419000D01*
X372727357Y-123466619D01*
X371774976Y-124371380D02*
X372346404Y-124371380D01*
X372060690Y-124371380D02*
X372060690Y-123371380D01*
X372155928Y-123514238D01*
X372251166Y-123609476D01*
X372346404Y-123657095D01*
X370822595Y-124371380D02*
X371394023Y-124371380D01*
X371108309Y-124371380D02*
X371108309Y-123371380D01*
X371203547Y-123514238D01*
X371298785Y-123609476D01*
X371394023Y-123657095D01*
X372524357Y-162249142D02*
X372571976Y-162296761D01*
X372714833Y-162344380D01*
X372810071Y-162344380D01*
X372952928Y-162296761D01*
X373048166Y-162201523D01*
X373095785Y-162106285D01*
X373143404Y-161915809D01*
X373143404Y-161772952D01*
X373095785Y-161582476D01*
X373048166Y-161487238D01*
X372952928Y-161392000D01*
X372810071Y-161344380D01*
X372714833Y-161344380D01*
X372571976Y-161392000D01*
X372524357Y-161439619D01*
X371571976Y-162344380D02*
X372143404Y-162344380D01*
X371857690Y-162344380D02*
X371857690Y-161344380D01*
X371952928Y-161487238D01*
X372048166Y-161582476D01*
X372143404Y-161630095D01*
X370952928Y-161344380D02*
X370857690Y-161344380D01*
X370762452Y-161392000D01*
X370714833Y-161439619D01*
X370667214Y-161534857D01*
X370619595Y-161725333D01*
X370619595Y-161963428D01*
X370667214Y-162153904D01*
X370714833Y-162249142D01*
X370762452Y-162296761D01*
X370857690Y-162344380D01*
X370952928Y-162344380D01*
X371048166Y-162296761D01*
X371095785Y-162249142D01*
X371143404Y-162153904D01*
X371191023Y-161963428D01*
X371191023Y-161725333D01*
X371143404Y-161534857D01*
X371095785Y-161439619D01*
X371048166Y-161392000D01*
X370952928Y-161344380D01*
X57189666Y-109036142D02*
X57237285Y-109083761D01*
X57380142Y-109131380D01*
X57475380Y-109131380D01*
X57618238Y-109083761D01*
X57713476Y-108988523D01*
X57761095Y-108893285D01*
X57808714Y-108702809D01*
X57808714Y-108559952D01*
X57761095Y-108369476D01*
X57713476Y-108274238D01*
X57618238Y-108179000D01*
X57475380Y-108131380D01*
X57380142Y-108131380D01*
X57237285Y-108179000D01*
X57189666Y-108226619D01*
X56713476Y-109131380D02*
X56523000Y-109131380D01*
X56427761Y-109083761D01*
X56380142Y-109036142D01*
X56284904Y-108893285D01*
X56237285Y-108702809D01*
X56237285Y-108321857D01*
X56284904Y-108226619D01*
X56332523Y-108179000D01*
X56427761Y-108131380D01*
X56618238Y-108131380D01*
X56713476Y-108179000D01*
X56761095Y-108226619D01*
X56808714Y-108321857D01*
X56808714Y-108559952D01*
X56761095Y-108655190D01*
X56713476Y-108702809D01*
X56618238Y-108750428D01*
X56427761Y-108750428D01*
X56332523Y-108702809D01*
X56284904Y-108655190D01*
X56237285Y-108559952D01*
X56173666Y-78937142D02*
X56221285Y-78984761D01*
X56364142Y-79032380D01*
X56459380Y-79032380D01*
X56602238Y-78984761D01*
X56697476Y-78889523D01*
X56745095Y-78794285D01*
X56792714Y-78603809D01*
X56792714Y-78460952D01*
X56745095Y-78270476D01*
X56697476Y-78175238D01*
X56602238Y-78080000D01*
X56459380Y-78032380D01*
X56364142Y-78032380D01*
X56221285Y-78080000D01*
X56173666Y-78127619D01*
X55602238Y-78460952D02*
X55697476Y-78413333D01*
X55745095Y-78365714D01*
X55792714Y-78270476D01*
X55792714Y-78222857D01*
X55745095Y-78127619D01*
X55697476Y-78080000D01*
X55602238Y-78032380D01*
X55411761Y-78032380D01*
X55316523Y-78080000D01*
X55268904Y-78127619D01*
X55221285Y-78222857D01*
X55221285Y-78270476D01*
X55268904Y-78365714D01*
X55316523Y-78413333D01*
X55411761Y-78460952D01*
X55602238Y-78460952D01*
X55697476Y-78508571D01*
X55745095Y-78556190D01*
X55792714Y-78651428D01*
X55792714Y-78841904D01*
X55745095Y-78937142D01*
X55697476Y-78984761D01*
X55602238Y-79032380D01*
X55411761Y-79032380D01*
X55316523Y-78984761D01*
X55268904Y-78937142D01*
X55221285Y-78841904D01*
X55221285Y-78651428D01*
X55268904Y-78556190D01*
X55316523Y-78508571D01*
X55411761Y-78460952D01*
X373324285Y-90114380D02*
X373324285Y-89114380D01*
X373086190Y-89114380D01*
X372943333Y-89162000D01*
X372848095Y-89257238D01*
X372800476Y-89352476D01*
X372752857Y-89542952D01*
X372752857Y-89685809D01*
X372800476Y-89876285D01*
X372848095Y-89971523D01*
X372943333Y-90066761D01*
X373086190Y-90114380D01*
X373324285Y-90114380D01*
X371848095Y-89114380D02*
X372324285Y-89114380D01*
X372371904Y-89590571D01*
X372324285Y-89542952D01*
X372229047Y-89495333D01*
X371990952Y-89495333D01*
X371895714Y-89542952D01*
X371848095Y-89590571D01*
X371800476Y-89685809D01*
X371800476Y-89923904D01*
X371848095Y-90019142D01*
X371895714Y-90066761D01*
X371990952Y-90114380D01*
X372229047Y-90114380D01*
X372324285Y-90066761D01*
X372371904Y-90019142D01*
X371229047Y-89542952D02*
X371324285Y-89495333D01*
X371371904Y-89447714D01*
X371419523Y-89352476D01*
X371419523Y-89304857D01*
X371371904Y-89209619D01*
X371324285Y-89162000D01*
X371229047Y-89114380D01*
X371038571Y-89114380D01*
X370943333Y-89162000D01*
X370895714Y-89209619D01*
X370848095Y-89304857D01*
X370848095Y-89352476D01*
X370895714Y-89447714D01*
X370943333Y-89495333D01*
X371038571Y-89542952D01*
X371229047Y-89542952D01*
X371324285Y-89590571D01*
X371371904Y-89638190D01*
X371419523Y-89733428D01*
X371419523Y-89923904D01*
X371371904Y-90019142D01*
X371324285Y-90066761D01*
X371229047Y-90114380D01*
X371038571Y-90114380D01*
X370943333Y-90066761D01*
X370895714Y-90019142D01*
X370848095Y-89923904D01*
X370848095Y-89733428D01*
X370895714Y-89638190D01*
X370943333Y-89590571D01*
X371038571Y-89542952D01*
X374162380Y-89017714D02*
X374162380Y-88446285D01*
X374162380Y-88732000D02*
X373162380Y-88732000D01*
X373305238Y-88636761D01*
X373400476Y-88541523D01*
X373448095Y-88446285D01*
X364783380Y-191825714D02*
X363783380Y-191825714D01*
X363783380Y-192063809D01*
X363831000Y-192206666D01*
X363926238Y-192301904D01*
X364021476Y-192349523D01*
X364211952Y-192397142D01*
X364354809Y-192397142D01*
X364545285Y-192349523D01*
X364640523Y-192301904D01*
X364735761Y-192206666D01*
X364783380Y-192063809D01*
X364783380Y-191825714D01*
X364211952Y-192968571D02*
X364164333Y-192873333D01*
X364116714Y-192825714D01*
X364021476Y-192778095D01*
X363973857Y-192778095D01*
X363878619Y-192825714D01*
X363831000Y-192873333D01*
X363783380Y-192968571D01*
X363783380Y-193159047D01*
X363831000Y-193254285D01*
X363878619Y-193301904D01*
X363973857Y-193349523D01*
X364021476Y-193349523D01*
X364116714Y-193301904D01*
X364164333Y-193254285D01*
X364211952Y-193159047D01*
X364211952Y-192968571D01*
X364259571Y-192873333D01*
X364307190Y-192825714D01*
X364402428Y-192778095D01*
X364592904Y-192778095D01*
X364688142Y-192825714D01*
X364735761Y-192873333D01*
X364783380Y-192968571D01*
X364783380Y-193159047D01*
X364735761Y-193254285D01*
X364688142Y-193301904D01*
X364592904Y-193349523D01*
X364402428Y-193349523D01*
X364307190Y-193301904D01*
X364259571Y-193254285D01*
X364211952Y-193159047D01*
X363783380Y-193682857D02*
X363783380Y-194301904D01*
X364164333Y-193968571D01*
X364164333Y-194111428D01*
X364211952Y-194206666D01*
X364259571Y-194254285D01*
X364354809Y-194301904D01*
X364592904Y-194301904D01*
X364688142Y-194254285D01*
X364735761Y-194206666D01*
X364783380Y-194111428D01*
X364783380Y-193825714D01*
X364735761Y-193730476D01*
X364688142Y-193682857D01*
X345733380Y-191825714D02*
X344733380Y-191825714D01*
X344733380Y-192063809D01*
X344781000Y-192206666D01*
X344876238Y-192301904D01*
X344971476Y-192349523D01*
X345161952Y-192397142D01*
X345304809Y-192397142D01*
X345495285Y-192349523D01*
X345590523Y-192301904D01*
X345685761Y-192206666D01*
X345733380Y-192063809D01*
X345733380Y-191825714D01*
X345161952Y-192968571D02*
X345114333Y-192873333D01*
X345066714Y-192825714D01*
X344971476Y-192778095D01*
X344923857Y-192778095D01*
X344828619Y-192825714D01*
X344781000Y-192873333D01*
X344733380Y-192968571D01*
X344733380Y-193159047D01*
X344781000Y-193254285D01*
X344828619Y-193301904D01*
X344923857Y-193349523D01*
X344971476Y-193349523D01*
X345066714Y-193301904D01*
X345114333Y-193254285D01*
X345161952Y-193159047D01*
X345161952Y-192968571D01*
X345209571Y-192873333D01*
X345257190Y-192825714D01*
X345352428Y-192778095D01*
X345542904Y-192778095D01*
X345638142Y-192825714D01*
X345685761Y-192873333D01*
X345733380Y-192968571D01*
X345733380Y-193159047D01*
X345685761Y-193254285D01*
X345638142Y-193301904D01*
X345542904Y-193349523D01*
X345352428Y-193349523D01*
X345257190Y-193301904D01*
X345209571Y-193254285D01*
X345161952Y-193159047D01*
X344828619Y-193730476D02*
X344781000Y-193778095D01*
X344733380Y-193873333D01*
X344733380Y-194111428D01*
X344781000Y-194206666D01*
X344828619Y-194254285D01*
X344923857Y-194301904D01*
X345019095Y-194301904D01*
X345161952Y-194254285D01*
X345733380Y-193682857D01*
X345733380Y-194301904D01*
X326683380Y-191825714D02*
X325683380Y-191825714D01*
X325683380Y-192063809D01*
X325731000Y-192206666D01*
X325826238Y-192301904D01*
X325921476Y-192349523D01*
X326111952Y-192397142D01*
X326254809Y-192397142D01*
X326445285Y-192349523D01*
X326540523Y-192301904D01*
X326635761Y-192206666D01*
X326683380Y-192063809D01*
X326683380Y-191825714D01*
X326111952Y-192968571D02*
X326064333Y-192873333D01*
X326016714Y-192825714D01*
X325921476Y-192778095D01*
X325873857Y-192778095D01*
X325778619Y-192825714D01*
X325731000Y-192873333D01*
X325683380Y-192968571D01*
X325683380Y-193159047D01*
X325731000Y-193254285D01*
X325778619Y-193301904D01*
X325873857Y-193349523D01*
X325921476Y-193349523D01*
X326016714Y-193301904D01*
X326064333Y-193254285D01*
X326111952Y-193159047D01*
X326111952Y-192968571D01*
X326159571Y-192873333D01*
X326207190Y-192825714D01*
X326302428Y-192778095D01*
X326492904Y-192778095D01*
X326588142Y-192825714D01*
X326635761Y-192873333D01*
X326683380Y-192968571D01*
X326683380Y-193159047D01*
X326635761Y-193254285D01*
X326588142Y-193301904D01*
X326492904Y-193349523D01*
X326302428Y-193349523D01*
X326207190Y-193301904D01*
X326159571Y-193254285D01*
X326111952Y-193159047D01*
X326683380Y-194301904D02*
X326683380Y-193730476D01*
X326683380Y-194016190D02*
X325683380Y-194016190D01*
X325826238Y-193920952D01*
X325921476Y-193825714D01*
X325969095Y-193730476D01*
X302807380Y-187126714D02*
X301807380Y-187126714D01*
X301807380Y-187364809D01*
X301855000Y-187507666D01*
X301950238Y-187602904D01*
X302045476Y-187650523D01*
X302235952Y-187698142D01*
X302378809Y-187698142D01*
X302569285Y-187650523D01*
X302664523Y-187602904D01*
X302759761Y-187507666D01*
X302807380Y-187364809D01*
X302807380Y-187126714D01*
X302235952Y-188269571D02*
X302188333Y-188174333D01*
X302140714Y-188126714D01*
X302045476Y-188079095D01*
X301997857Y-188079095D01*
X301902619Y-188126714D01*
X301855000Y-188174333D01*
X301807380Y-188269571D01*
X301807380Y-188460047D01*
X301855000Y-188555285D01*
X301902619Y-188602904D01*
X301997857Y-188650523D01*
X302045476Y-188650523D01*
X302140714Y-188602904D01*
X302188333Y-188555285D01*
X302235952Y-188460047D01*
X302235952Y-188269571D01*
X302283571Y-188174333D01*
X302331190Y-188126714D01*
X302426428Y-188079095D01*
X302616904Y-188079095D01*
X302712142Y-188126714D01*
X302759761Y-188174333D01*
X302807380Y-188269571D01*
X302807380Y-188460047D01*
X302759761Y-188555285D01*
X302712142Y-188602904D01*
X302616904Y-188650523D01*
X302426428Y-188650523D01*
X302331190Y-188602904D01*
X302283571Y-188555285D01*
X302235952Y-188460047D01*
X301807380Y-189269571D02*
X301807380Y-189364809D01*
X301855000Y-189460047D01*
X301902619Y-189507666D01*
X301997857Y-189555285D01*
X302188333Y-189602904D01*
X302426428Y-189602904D01*
X302616904Y-189555285D01*
X302712142Y-189507666D01*
X302759761Y-189460047D01*
X302807380Y-189364809D01*
X302807380Y-189269571D01*
X302759761Y-189174333D01*
X302712142Y-189126714D01*
X302616904Y-189079095D01*
X302426428Y-189031476D01*
X302188333Y-189031476D01*
X301997857Y-189079095D01*
X301902619Y-189126714D01*
X301855000Y-189174333D01*
X301807380Y-189269571D01*
X283757380Y-187126714D02*
X282757380Y-187126714D01*
X282757380Y-187364809D01*
X282805000Y-187507666D01*
X282900238Y-187602904D01*
X282995476Y-187650523D01*
X283185952Y-187698142D01*
X283328809Y-187698142D01*
X283519285Y-187650523D01*
X283614523Y-187602904D01*
X283709761Y-187507666D01*
X283757380Y-187364809D01*
X283757380Y-187126714D01*
X282757380Y-188031476D02*
X282757380Y-188698142D01*
X283757380Y-188269571D01*
X283757380Y-189126714D02*
X283757380Y-189317190D01*
X283709761Y-189412428D01*
X283662142Y-189460047D01*
X283519285Y-189555285D01*
X283328809Y-189602904D01*
X282947857Y-189602904D01*
X282852619Y-189555285D01*
X282805000Y-189507666D01*
X282757380Y-189412428D01*
X282757380Y-189221952D01*
X282805000Y-189126714D01*
X282852619Y-189079095D01*
X282947857Y-189031476D01*
X283185952Y-189031476D01*
X283281190Y-189079095D01*
X283328809Y-189126714D01*
X283376428Y-189221952D01*
X283376428Y-189412428D01*
X283328809Y-189507666D01*
X283281190Y-189555285D01*
X283185952Y-189602904D01*
X264834380Y-187126714D02*
X263834380Y-187126714D01*
X263834380Y-187364809D01*
X263882000Y-187507666D01*
X263977238Y-187602904D01*
X264072476Y-187650523D01*
X264262952Y-187698142D01*
X264405809Y-187698142D01*
X264596285Y-187650523D01*
X264691523Y-187602904D01*
X264786761Y-187507666D01*
X264834380Y-187364809D01*
X264834380Y-187126714D01*
X263834380Y-188031476D02*
X263834380Y-188698142D01*
X264834380Y-188269571D01*
X264262952Y-189221952D02*
X264215333Y-189126714D01*
X264167714Y-189079095D01*
X264072476Y-189031476D01*
X264024857Y-189031476D01*
X263929619Y-189079095D01*
X263882000Y-189126714D01*
X263834380Y-189221952D01*
X263834380Y-189412428D01*
X263882000Y-189507666D01*
X263929619Y-189555285D01*
X264024857Y-189602904D01*
X264072476Y-189602904D01*
X264167714Y-189555285D01*
X264215333Y-189507666D01*
X264262952Y-189412428D01*
X264262952Y-189221952D01*
X264310571Y-189126714D01*
X264358190Y-189079095D01*
X264453428Y-189031476D01*
X264643904Y-189031476D01*
X264739142Y-189079095D01*
X264786761Y-189126714D01*
X264834380Y-189221952D01*
X264834380Y-189412428D01*
X264786761Y-189507666D01*
X264739142Y-189555285D01*
X264643904Y-189602904D01*
X264453428Y-189602904D01*
X264358190Y-189555285D01*
X264310571Y-189507666D01*
X264262952Y-189412428D01*
X195746380Y-187126714D02*
X194746380Y-187126714D01*
X194746380Y-187364809D01*
X194794000Y-187507666D01*
X194889238Y-187602904D01*
X194984476Y-187650523D01*
X195174952Y-187698142D01*
X195317809Y-187698142D01*
X195508285Y-187650523D01*
X195603523Y-187602904D01*
X195698761Y-187507666D01*
X195746380Y-187364809D01*
X195746380Y-187126714D01*
X194746380Y-188031476D02*
X194746380Y-188698142D01*
X195746380Y-188269571D01*
X194746380Y-188983857D02*
X194746380Y-189650523D01*
X195746380Y-189221952D01*
X124245380Y-187125714D02*
X123245380Y-187125714D01*
X123245380Y-187363809D01*
X123293000Y-187506666D01*
X123388238Y-187601904D01*
X123483476Y-187649523D01*
X123673952Y-187697142D01*
X123816809Y-187697142D01*
X124007285Y-187649523D01*
X124102523Y-187601904D01*
X124197761Y-187506666D01*
X124245380Y-187363809D01*
X124245380Y-187125714D01*
X123245380Y-188030476D02*
X123245380Y-188697142D01*
X124245380Y-188268571D01*
X123245380Y-189506666D02*
X123245380Y-189316190D01*
X123293000Y-189220952D01*
X123340619Y-189173333D01*
X123483476Y-189078095D01*
X123673952Y-189030476D01*
X124054904Y-189030476D01*
X124150142Y-189078095D01*
X124197761Y-189125714D01*
X124245380Y-189220952D01*
X124245380Y-189411428D01*
X124197761Y-189506666D01*
X124150142Y-189554285D01*
X124054904Y-189601904D01*
X123816809Y-189601904D01*
X123721571Y-189554285D01*
X123673952Y-189506666D01*
X123626333Y-189411428D01*
X123626333Y-189220952D01*
X123673952Y-189125714D01*
X123721571Y-189078095D01*
X123816809Y-189030476D01*
X100369380Y-187126714D02*
X99369380Y-187126714D01*
X99369380Y-187364809D01*
X99417000Y-187507666D01*
X99512238Y-187602904D01*
X99607476Y-187650523D01*
X99797952Y-187698142D01*
X99940809Y-187698142D01*
X100131285Y-187650523D01*
X100226523Y-187602904D01*
X100321761Y-187507666D01*
X100369380Y-187364809D01*
X100369380Y-187126714D01*
X99369380Y-188031476D02*
X99369380Y-188698142D01*
X100369380Y-188269571D01*
X99369380Y-189555285D02*
X99369380Y-189079095D01*
X99845571Y-189031476D01*
X99797952Y-189079095D01*
X99750333Y-189174333D01*
X99750333Y-189412428D01*
X99797952Y-189507666D01*
X99845571Y-189555285D01*
X99940809Y-189602904D01*
X100178904Y-189602904D01*
X100274142Y-189555285D01*
X100321761Y-189507666D01*
X100369380Y-189412428D01*
X100369380Y-189174333D01*
X100321761Y-189079095D01*
X100274142Y-189031476D01*
X76620380Y-187125714D02*
X75620380Y-187125714D01*
X75620380Y-187363809D01*
X75668000Y-187506666D01*
X75763238Y-187601904D01*
X75858476Y-187649523D01*
X76048952Y-187697142D01*
X76191809Y-187697142D01*
X76382285Y-187649523D01*
X76477523Y-187601904D01*
X76572761Y-187506666D01*
X76620380Y-187363809D01*
X76620380Y-187125714D01*
X75620380Y-188030476D02*
X75620380Y-188697142D01*
X76620380Y-188268571D01*
X75953714Y-189506666D02*
X76620380Y-189506666D01*
X75572761Y-189268571D02*
X76287047Y-189030476D01*
X76287047Y-189649523D01*
X369482380Y-168076714D02*
X368482380Y-168076714D01*
X368482380Y-168314809D01*
X368530000Y-168457666D01*
X368625238Y-168552904D01*
X368720476Y-168600523D01*
X368910952Y-168648142D01*
X369053809Y-168648142D01*
X369244285Y-168600523D01*
X369339523Y-168552904D01*
X369434761Y-168457666D01*
X369482380Y-168314809D01*
X369482380Y-168076714D01*
X368482380Y-168981476D02*
X368482380Y-169648142D01*
X369482380Y-169219571D01*
X368482380Y-169933857D02*
X368482380Y-170552904D01*
X368863333Y-170219571D01*
X368863333Y-170362428D01*
X368910952Y-170457666D01*
X368958571Y-170505285D01*
X369053809Y-170552904D01*
X369291904Y-170552904D01*
X369387142Y-170505285D01*
X369434761Y-170457666D01*
X369482380Y-170362428D01*
X369482380Y-170076714D01*
X369434761Y-169981476D01*
X369387142Y-169933857D01*
X345733380Y-172775714D02*
X344733380Y-172775714D01*
X344733380Y-173013809D01*
X344781000Y-173156666D01*
X344876238Y-173251904D01*
X344971476Y-173299523D01*
X345161952Y-173347142D01*
X345304809Y-173347142D01*
X345495285Y-173299523D01*
X345590523Y-173251904D01*
X345685761Y-173156666D01*
X345733380Y-173013809D01*
X345733380Y-172775714D01*
X344733380Y-173680476D02*
X344733380Y-174347142D01*
X345733380Y-173918571D01*
X344828619Y-174680476D02*
X344781000Y-174728095D01*
X344733380Y-174823333D01*
X344733380Y-175061428D01*
X344781000Y-175156666D01*
X344828619Y-175204285D01*
X344923857Y-175251904D01*
X345019095Y-175251904D01*
X345161952Y-175204285D01*
X345733380Y-174632857D01*
X345733380Y-175251904D01*
X314745380Y-168076714D02*
X313745380Y-168076714D01*
X313745380Y-168314809D01*
X313793000Y-168457666D01*
X313888238Y-168552904D01*
X313983476Y-168600523D01*
X314173952Y-168648142D01*
X314316809Y-168648142D01*
X314507285Y-168600523D01*
X314602523Y-168552904D01*
X314697761Y-168457666D01*
X314745380Y-168314809D01*
X314745380Y-168076714D01*
X313745380Y-168981476D02*
X313745380Y-169648142D01*
X314745380Y-169219571D01*
X314745380Y-170552904D02*
X314745380Y-169981476D01*
X314745380Y-170267190D02*
X313745380Y-170267190D01*
X313888238Y-170171952D01*
X313983476Y-170076714D01*
X314031095Y-169981476D01*
X288583380Y-168076714D02*
X287583380Y-168076714D01*
X287583380Y-168314809D01*
X287631000Y-168457666D01*
X287726238Y-168552904D01*
X287821476Y-168600523D01*
X288011952Y-168648142D01*
X288154809Y-168648142D01*
X288345285Y-168600523D01*
X288440523Y-168552904D01*
X288535761Y-168457666D01*
X288583380Y-168314809D01*
X288583380Y-168076714D01*
X287583380Y-168981476D02*
X287583380Y-169648142D01*
X288583380Y-169219571D01*
X287583380Y-170219571D02*
X287583380Y-170314809D01*
X287631000Y-170410047D01*
X287678619Y-170457666D01*
X287773857Y-170505285D01*
X287964333Y-170552904D01*
X288202428Y-170552904D01*
X288392904Y-170505285D01*
X288488142Y-170457666D01*
X288535761Y-170410047D01*
X288583380Y-170314809D01*
X288583380Y-170219571D01*
X288535761Y-170124333D01*
X288488142Y-170076714D01*
X288392904Y-170029095D01*
X288202428Y-169981476D01*
X287964333Y-169981476D01*
X287773857Y-170029095D01*
X287678619Y-170076714D01*
X287631000Y-170124333D01*
X287583380Y-170219571D01*
X269533380Y-168076714D02*
X268533380Y-168076714D01*
X268533380Y-168314809D01*
X268581000Y-168457666D01*
X268676238Y-168552904D01*
X268771476Y-168600523D01*
X268961952Y-168648142D01*
X269104809Y-168648142D01*
X269295285Y-168600523D01*
X269390523Y-168552904D01*
X269485761Y-168457666D01*
X269533380Y-168314809D01*
X269533380Y-168076714D01*
X268533380Y-169505285D02*
X268533380Y-169314809D01*
X268581000Y-169219571D01*
X268628619Y-169171952D01*
X268771476Y-169076714D01*
X268961952Y-169029095D01*
X269342904Y-169029095D01*
X269438142Y-169076714D01*
X269485761Y-169124333D01*
X269533380Y-169219571D01*
X269533380Y-169410047D01*
X269485761Y-169505285D01*
X269438142Y-169552904D01*
X269342904Y-169600523D01*
X269104809Y-169600523D01*
X269009571Y-169552904D01*
X268961952Y-169505285D01*
X268914333Y-169410047D01*
X268914333Y-169219571D01*
X268961952Y-169124333D01*
X269009571Y-169076714D01*
X269104809Y-169029095D01*
X269533380Y-170076714D02*
X269533380Y-170267190D01*
X269485761Y-170362428D01*
X269438142Y-170410047D01*
X269295285Y-170505285D01*
X269104809Y-170552904D01*
X268723857Y-170552904D01*
X268628619Y-170505285D01*
X268581000Y-170457666D01*
X268533380Y-170362428D01*
X268533380Y-170171952D01*
X268581000Y-170076714D01*
X268628619Y-170029095D01*
X268723857Y-169981476D01*
X268961952Y-169981476D01*
X269057190Y-170029095D01*
X269104809Y-170076714D01*
X269152428Y-170171952D01*
X269152428Y-170362428D01*
X269104809Y-170457666D01*
X269057190Y-170505285D01*
X268961952Y-170552904D01*
X250483380Y-168076714D02*
X249483380Y-168076714D01*
X249483380Y-168314809D01*
X249531000Y-168457666D01*
X249626238Y-168552904D01*
X249721476Y-168600523D01*
X249911952Y-168648142D01*
X250054809Y-168648142D01*
X250245285Y-168600523D01*
X250340523Y-168552904D01*
X250435761Y-168457666D01*
X250483380Y-168314809D01*
X250483380Y-168076714D01*
X249483380Y-169505285D02*
X249483380Y-169314809D01*
X249531000Y-169219571D01*
X249578619Y-169171952D01*
X249721476Y-169076714D01*
X249911952Y-169029095D01*
X250292904Y-169029095D01*
X250388142Y-169076714D01*
X250435761Y-169124333D01*
X250483380Y-169219571D01*
X250483380Y-169410047D01*
X250435761Y-169505285D01*
X250388142Y-169552904D01*
X250292904Y-169600523D01*
X250054809Y-169600523D01*
X249959571Y-169552904D01*
X249911952Y-169505285D01*
X249864333Y-169410047D01*
X249864333Y-169219571D01*
X249911952Y-169124333D01*
X249959571Y-169076714D01*
X250054809Y-169029095D01*
X249911952Y-170171952D02*
X249864333Y-170076714D01*
X249816714Y-170029095D01*
X249721476Y-169981476D01*
X249673857Y-169981476D01*
X249578619Y-170029095D01*
X249531000Y-170076714D01*
X249483380Y-170171952D01*
X249483380Y-170362428D01*
X249531000Y-170457666D01*
X249578619Y-170505285D01*
X249673857Y-170552904D01*
X249721476Y-170552904D01*
X249816714Y-170505285D01*
X249864333Y-170457666D01*
X249911952Y-170362428D01*
X249911952Y-170171952D01*
X249959571Y-170076714D01*
X250007190Y-170029095D01*
X250102428Y-169981476D01*
X250292904Y-169981476D01*
X250388142Y-170029095D01*
X250435761Y-170076714D01*
X250483380Y-170171952D01*
X250483380Y-170362428D01*
X250435761Y-170457666D01*
X250388142Y-170505285D01*
X250292904Y-170552904D01*
X250102428Y-170552904D01*
X250007190Y-170505285D01*
X249959571Y-170457666D01*
X249911952Y-170362428D01*
X231433380Y-168076714D02*
X230433380Y-168076714D01*
X230433380Y-168314809D01*
X230481000Y-168457666D01*
X230576238Y-168552904D01*
X230671476Y-168600523D01*
X230861952Y-168648142D01*
X231004809Y-168648142D01*
X231195285Y-168600523D01*
X231290523Y-168552904D01*
X231385761Y-168457666D01*
X231433380Y-168314809D01*
X231433380Y-168076714D01*
X230433380Y-169505285D02*
X230433380Y-169314809D01*
X230481000Y-169219571D01*
X230528619Y-169171952D01*
X230671476Y-169076714D01*
X230861952Y-169029095D01*
X231242904Y-169029095D01*
X231338142Y-169076714D01*
X231385761Y-169124333D01*
X231433380Y-169219571D01*
X231433380Y-169410047D01*
X231385761Y-169505285D01*
X231338142Y-169552904D01*
X231242904Y-169600523D01*
X231004809Y-169600523D01*
X230909571Y-169552904D01*
X230861952Y-169505285D01*
X230814333Y-169410047D01*
X230814333Y-169219571D01*
X230861952Y-169124333D01*
X230909571Y-169076714D01*
X231004809Y-169029095D01*
X230433380Y-169933857D02*
X230433380Y-170600523D01*
X231433380Y-170171952D01*
X212383380Y-168076714D02*
X211383380Y-168076714D01*
X211383380Y-168314809D01*
X211431000Y-168457666D01*
X211526238Y-168552904D01*
X211621476Y-168600523D01*
X211811952Y-168648142D01*
X211954809Y-168648142D01*
X212145285Y-168600523D01*
X212240523Y-168552904D01*
X212335761Y-168457666D01*
X212383380Y-168314809D01*
X212383380Y-168076714D01*
X211383380Y-169505285D02*
X211383380Y-169314809D01*
X211431000Y-169219571D01*
X211478619Y-169171952D01*
X211621476Y-169076714D01*
X211811952Y-169029095D01*
X212192904Y-169029095D01*
X212288142Y-169076714D01*
X212335761Y-169124333D01*
X212383380Y-169219571D01*
X212383380Y-169410047D01*
X212335761Y-169505285D01*
X212288142Y-169552904D01*
X212192904Y-169600523D01*
X211954809Y-169600523D01*
X211859571Y-169552904D01*
X211811952Y-169505285D01*
X211764333Y-169410047D01*
X211764333Y-169219571D01*
X211811952Y-169124333D01*
X211859571Y-169076714D01*
X211954809Y-169029095D01*
X211383380Y-170457666D02*
X211383380Y-170267190D01*
X211431000Y-170171952D01*
X211478619Y-170124333D01*
X211621476Y-170029095D01*
X211811952Y-169981476D01*
X212192904Y-169981476D01*
X212288142Y-170029095D01*
X212335761Y-170076714D01*
X212383380Y-170171952D01*
X212383380Y-170362428D01*
X212335761Y-170457666D01*
X212288142Y-170505285D01*
X212192904Y-170552904D01*
X211954809Y-170552904D01*
X211859571Y-170505285D01*
X211811952Y-170457666D01*
X211764333Y-170362428D01*
X211764333Y-170171952D01*
X211811952Y-170076714D01*
X211859571Y-170029095D01*
X211954809Y-169981476D01*
X193333380Y-168076714D02*
X192333380Y-168076714D01*
X192333380Y-168314809D01*
X192381000Y-168457666D01*
X192476238Y-168552904D01*
X192571476Y-168600523D01*
X192761952Y-168648142D01*
X192904809Y-168648142D01*
X193095285Y-168600523D01*
X193190523Y-168552904D01*
X193285761Y-168457666D01*
X193333380Y-168314809D01*
X193333380Y-168076714D01*
X192333380Y-169505285D02*
X192333380Y-169314809D01*
X192381000Y-169219571D01*
X192428619Y-169171952D01*
X192571476Y-169076714D01*
X192761952Y-169029095D01*
X193142904Y-169029095D01*
X193238142Y-169076714D01*
X193285761Y-169124333D01*
X193333380Y-169219571D01*
X193333380Y-169410047D01*
X193285761Y-169505285D01*
X193238142Y-169552904D01*
X193142904Y-169600523D01*
X192904809Y-169600523D01*
X192809571Y-169552904D01*
X192761952Y-169505285D01*
X192714333Y-169410047D01*
X192714333Y-169219571D01*
X192761952Y-169124333D01*
X192809571Y-169076714D01*
X192904809Y-169029095D01*
X192333380Y-170505285D02*
X192333380Y-170029095D01*
X192809571Y-169981476D01*
X192761952Y-170029095D01*
X192714333Y-170124333D01*
X192714333Y-170362428D01*
X192761952Y-170457666D01*
X192809571Y-170505285D01*
X192904809Y-170552904D01*
X193142904Y-170552904D01*
X193238142Y-170505285D01*
X193285761Y-170457666D01*
X193333380Y-170362428D01*
X193333380Y-170124333D01*
X193285761Y-170029095D01*
X193238142Y-169981476D01*
X174283380Y-168076714D02*
X173283380Y-168076714D01*
X173283380Y-168314809D01*
X173331000Y-168457666D01*
X173426238Y-168552904D01*
X173521476Y-168600523D01*
X173711952Y-168648142D01*
X173854809Y-168648142D01*
X174045285Y-168600523D01*
X174140523Y-168552904D01*
X174235761Y-168457666D01*
X174283380Y-168314809D01*
X174283380Y-168076714D01*
X173283380Y-169505285D02*
X173283380Y-169314809D01*
X173331000Y-169219571D01*
X173378619Y-169171952D01*
X173521476Y-169076714D01*
X173711952Y-169029095D01*
X174092904Y-169029095D01*
X174188142Y-169076714D01*
X174235761Y-169124333D01*
X174283380Y-169219571D01*
X174283380Y-169410047D01*
X174235761Y-169505285D01*
X174188142Y-169552904D01*
X174092904Y-169600523D01*
X173854809Y-169600523D01*
X173759571Y-169552904D01*
X173711952Y-169505285D01*
X173664333Y-169410047D01*
X173664333Y-169219571D01*
X173711952Y-169124333D01*
X173759571Y-169076714D01*
X173854809Y-169029095D01*
X173616714Y-170457666D02*
X174283380Y-170457666D01*
X173235761Y-170219571D02*
X173950047Y-169981476D01*
X173950047Y-170600523D01*
X155360380Y-168076714D02*
X154360380Y-168076714D01*
X154360380Y-168314809D01*
X154408000Y-168457666D01*
X154503238Y-168552904D01*
X154598476Y-168600523D01*
X154788952Y-168648142D01*
X154931809Y-168648142D01*
X155122285Y-168600523D01*
X155217523Y-168552904D01*
X155312761Y-168457666D01*
X155360380Y-168314809D01*
X155360380Y-168076714D01*
X154360380Y-169505285D02*
X154360380Y-169314809D01*
X154408000Y-169219571D01*
X154455619Y-169171952D01*
X154598476Y-169076714D01*
X154788952Y-169029095D01*
X155169904Y-169029095D01*
X155265142Y-169076714D01*
X155312761Y-169124333D01*
X155360380Y-169219571D01*
X155360380Y-169410047D01*
X155312761Y-169505285D01*
X155265142Y-169552904D01*
X155169904Y-169600523D01*
X154931809Y-169600523D01*
X154836571Y-169552904D01*
X154788952Y-169505285D01*
X154741333Y-169410047D01*
X154741333Y-169219571D01*
X154788952Y-169124333D01*
X154836571Y-169076714D01*
X154931809Y-169029095D01*
X154360380Y-169933857D02*
X154360380Y-170552904D01*
X154741333Y-170219571D01*
X154741333Y-170362428D01*
X154788952Y-170457666D01*
X154836571Y-170505285D01*
X154931809Y-170552904D01*
X155169904Y-170552904D01*
X155265142Y-170505285D01*
X155312761Y-170457666D01*
X155360380Y-170362428D01*
X155360380Y-170076714D01*
X155312761Y-169981476D01*
X155265142Y-169933857D01*
X136183380Y-168076714D02*
X135183380Y-168076714D01*
X135183380Y-168314809D01*
X135231000Y-168457666D01*
X135326238Y-168552904D01*
X135421476Y-168600523D01*
X135611952Y-168648142D01*
X135754809Y-168648142D01*
X135945285Y-168600523D01*
X136040523Y-168552904D01*
X136135761Y-168457666D01*
X136183380Y-168314809D01*
X136183380Y-168076714D01*
X135183380Y-169505285D02*
X135183380Y-169314809D01*
X135231000Y-169219571D01*
X135278619Y-169171952D01*
X135421476Y-169076714D01*
X135611952Y-169029095D01*
X135992904Y-169029095D01*
X136088142Y-169076714D01*
X136135761Y-169124333D01*
X136183380Y-169219571D01*
X136183380Y-169410047D01*
X136135761Y-169505285D01*
X136088142Y-169552904D01*
X135992904Y-169600523D01*
X135754809Y-169600523D01*
X135659571Y-169552904D01*
X135611952Y-169505285D01*
X135564333Y-169410047D01*
X135564333Y-169219571D01*
X135611952Y-169124333D01*
X135659571Y-169076714D01*
X135754809Y-169029095D01*
X135278619Y-169981476D02*
X135231000Y-170029095D01*
X135183380Y-170124333D01*
X135183380Y-170362428D01*
X135231000Y-170457666D01*
X135278619Y-170505285D01*
X135373857Y-170552904D01*
X135469095Y-170552904D01*
X135611952Y-170505285D01*
X136183380Y-169933857D01*
X136183380Y-170552904D01*
X117133380Y-168076714D02*
X116133380Y-168076714D01*
X116133380Y-168314809D01*
X116181000Y-168457666D01*
X116276238Y-168552904D01*
X116371476Y-168600523D01*
X116561952Y-168648142D01*
X116704809Y-168648142D01*
X116895285Y-168600523D01*
X116990523Y-168552904D01*
X117085761Y-168457666D01*
X117133380Y-168314809D01*
X117133380Y-168076714D01*
X116133380Y-169505285D02*
X116133380Y-169314809D01*
X116181000Y-169219571D01*
X116228619Y-169171952D01*
X116371476Y-169076714D01*
X116561952Y-169029095D01*
X116942904Y-169029095D01*
X117038142Y-169076714D01*
X117085761Y-169124333D01*
X117133380Y-169219571D01*
X117133380Y-169410047D01*
X117085761Y-169505285D01*
X117038142Y-169552904D01*
X116942904Y-169600523D01*
X116704809Y-169600523D01*
X116609571Y-169552904D01*
X116561952Y-169505285D01*
X116514333Y-169410047D01*
X116514333Y-169219571D01*
X116561952Y-169124333D01*
X116609571Y-169076714D01*
X116704809Y-169029095D01*
X117133380Y-170552904D02*
X117133380Y-169981476D01*
X117133380Y-170267190D02*
X116133380Y-170267190D01*
X116276238Y-170171952D01*
X116371476Y-170076714D01*
X116419095Y-169981476D01*
X86145380Y-168076714D02*
X85145380Y-168076714D01*
X85145380Y-168314809D01*
X85193000Y-168457666D01*
X85288238Y-168552904D01*
X85383476Y-168600523D01*
X85573952Y-168648142D01*
X85716809Y-168648142D01*
X85907285Y-168600523D01*
X86002523Y-168552904D01*
X86097761Y-168457666D01*
X86145380Y-168314809D01*
X86145380Y-168076714D01*
X85145380Y-169505285D02*
X85145380Y-169314809D01*
X85193000Y-169219571D01*
X85240619Y-169171952D01*
X85383476Y-169076714D01*
X85573952Y-169029095D01*
X85954904Y-169029095D01*
X86050142Y-169076714D01*
X86097761Y-169124333D01*
X86145380Y-169219571D01*
X86145380Y-169410047D01*
X86097761Y-169505285D01*
X86050142Y-169552904D01*
X85954904Y-169600523D01*
X85716809Y-169600523D01*
X85621571Y-169552904D01*
X85573952Y-169505285D01*
X85526333Y-169410047D01*
X85526333Y-169219571D01*
X85573952Y-169124333D01*
X85621571Y-169076714D01*
X85716809Y-169029095D01*
X85145380Y-170219571D02*
X85145380Y-170314809D01*
X85193000Y-170410047D01*
X85240619Y-170457666D01*
X85335857Y-170505285D01*
X85526333Y-170552904D01*
X85764428Y-170552904D01*
X85954904Y-170505285D01*
X86050142Y-170457666D01*
X86097761Y-170410047D01*
X86145380Y-170314809D01*
X86145380Y-170219571D01*
X86097761Y-170124333D01*
X86050142Y-170076714D01*
X85954904Y-170029095D01*
X85764428Y-169981476D01*
X85526333Y-169981476D01*
X85335857Y-170029095D01*
X85240619Y-170076714D01*
X85193000Y-170124333D01*
X85145380Y-170219571D01*
X369482380Y-149026714D02*
X368482380Y-149026714D01*
X368482380Y-149264809D01*
X368530000Y-149407666D01*
X368625238Y-149502904D01*
X368720476Y-149550523D01*
X368910952Y-149598142D01*
X369053809Y-149598142D01*
X369244285Y-149550523D01*
X369339523Y-149502904D01*
X369434761Y-149407666D01*
X369482380Y-149264809D01*
X369482380Y-149026714D01*
X368482380Y-150502904D02*
X368482380Y-150026714D01*
X368958571Y-149979095D01*
X368910952Y-150026714D01*
X368863333Y-150121952D01*
X368863333Y-150360047D01*
X368910952Y-150455285D01*
X368958571Y-150502904D01*
X369053809Y-150550523D01*
X369291904Y-150550523D01*
X369387142Y-150502904D01*
X369434761Y-150455285D01*
X369482380Y-150360047D01*
X369482380Y-150121952D01*
X369434761Y-150026714D01*
X369387142Y-149979095D01*
X369482380Y-151026714D02*
X369482380Y-151217190D01*
X369434761Y-151312428D01*
X369387142Y-151360047D01*
X369244285Y-151455285D01*
X369053809Y-151502904D01*
X368672857Y-151502904D01*
X368577619Y-151455285D01*
X368530000Y-151407666D01*
X368482380Y-151312428D01*
X368482380Y-151121952D01*
X368530000Y-151026714D01*
X368577619Y-150979095D01*
X368672857Y-150931476D01*
X368910952Y-150931476D01*
X369006190Y-150979095D01*
X369053809Y-151026714D01*
X369101428Y-151121952D01*
X369101428Y-151312428D01*
X369053809Y-151407666D01*
X369006190Y-151455285D01*
X368910952Y-151502904D01*
X329096380Y-149026714D02*
X328096380Y-149026714D01*
X328096380Y-149264809D01*
X328144000Y-149407666D01*
X328239238Y-149502904D01*
X328334476Y-149550523D01*
X328524952Y-149598142D01*
X328667809Y-149598142D01*
X328858285Y-149550523D01*
X328953523Y-149502904D01*
X329048761Y-149407666D01*
X329096380Y-149264809D01*
X329096380Y-149026714D01*
X328096380Y-150502904D02*
X328096380Y-150026714D01*
X328572571Y-149979095D01*
X328524952Y-150026714D01*
X328477333Y-150121952D01*
X328477333Y-150360047D01*
X328524952Y-150455285D01*
X328572571Y-150502904D01*
X328667809Y-150550523D01*
X328905904Y-150550523D01*
X329001142Y-150502904D01*
X329048761Y-150455285D01*
X329096380Y-150360047D01*
X329096380Y-150121952D01*
X329048761Y-150026714D01*
X329001142Y-149979095D01*
X328096380Y-150883857D02*
X328096380Y-151550523D01*
X329096380Y-151121952D01*
X298108380Y-149026714D02*
X297108380Y-149026714D01*
X297108380Y-149264809D01*
X297156000Y-149407666D01*
X297251238Y-149502904D01*
X297346476Y-149550523D01*
X297536952Y-149598142D01*
X297679809Y-149598142D01*
X297870285Y-149550523D01*
X297965523Y-149502904D01*
X298060761Y-149407666D01*
X298108380Y-149264809D01*
X298108380Y-149026714D01*
X297108380Y-150502904D02*
X297108380Y-150026714D01*
X297584571Y-149979095D01*
X297536952Y-150026714D01*
X297489333Y-150121952D01*
X297489333Y-150360047D01*
X297536952Y-150455285D01*
X297584571Y-150502904D01*
X297679809Y-150550523D01*
X297917904Y-150550523D01*
X298013142Y-150502904D01*
X298060761Y-150455285D01*
X298108380Y-150360047D01*
X298108380Y-150121952D01*
X298060761Y-150026714D01*
X298013142Y-149979095D01*
X297108380Y-151407666D02*
X297108380Y-151217190D01*
X297156000Y-151121952D01*
X297203619Y-151074333D01*
X297346476Y-150979095D01*
X297536952Y-150931476D01*
X297917904Y-150931476D01*
X298013142Y-150979095D01*
X298060761Y-151026714D01*
X298108380Y-151121952D01*
X298108380Y-151312428D01*
X298060761Y-151407666D01*
X298013142Y-151455285D01*
X297917904Y-151502904D01*
X297679809Y-151502904D01*
X297584571Y-151455285D01*
X297536952Y-151407666D01*
X297489333Y-151312428D01*
X297489333Y-151121952D01*
X297536952Y-151026714D01*
X297584571Y-150979095D01*
X297679809Y-150931476D01*
X279058380Y-149026714D02*
X278058380Y-149026714D01*
X278058380Y-149264809D01*
X278106000Y-149407666D01*
X278201238Y-149502904D01*
X278296476Y-149550523D01*
X278486952Y-149598142D01*
X278629809Y-149598142D01*
X278820285Y-149550523D01*
X278915523Y-149502904D01*
X279010761Y-149407666D01*
X279058380Y-149264809D01*
X279058380Y-149026714D01*
X278058380Y-150502904D02*
X278058380Y-150026714D01*
X278534571Y-149979095D01*
X278486952Y-150026714D01*
X278439333Y-150121952D01*
X278439333Y-150360047D01*
X278486952Y-150455285D01*
X278534571Y-150502904D01*
X278629809Y-150550523D01*
X278867904Y-150550523D01*
X278963142Y-150502904D01*
X279010761Y-150455285D01*
X279058380Y-150360047D01*
X279058380Y-150121952D01*
X279010761Y-150026714D01*
X278963142Y-149979095D01*
X278058380Y-151455285D02*
X278058380Y-150979095D01*
X278534571Y-150931476D01*
X278486952Y-150979095D01*
X278439333Y-151074333D01*
X278439333Y-151312428D01*
X278486952Y-151407666D01*
X278534571Y-151455285D01*
X278629809Y-151502904D01*
X278867904Y-151502904D01*
X278963142Y-151455285D01*
X279010761Y-151407666D01*
X279058380Y-151312428D01*
X279058380Y-151074333D01*
X279010761Y-150979095D01*
X278963142Y-150931476D01*
X260008380Y-149026714D02*
X259008380Y-149026714D01*
X259008380Y-149264809D01*
X259056000Y-149407666D01*
X259151238Y-149502904D01*
X259246476Y-149550523D01*
X259436952Y-149598142D01*
X259579809Y-149598142D01*
X259770285Y-149550523D01*
X259865523Y-149502904D01*
X259960761Y-149407666D01*
X260008380Y-149264809D01*
X260008380Y-149026714D01*
X259008380Y-150502904D02*
X259008380Y-150026714D01*
X259484571Y-149979095D01*
X259436952Y-150026714D01*
X259389333Y-150121952D01*
X259389333Y-150360047D01*
X259436952Y-150455285D01*
X259484571Y-150502904D01*
X259579809Y-150550523D01*
X259817904Y-150550523D01*
X259913142Y-150502904D01*
X259960761Y-150455285D01*
X260008380Y-150360047D01*
X260008380Y-150121952D01*
X259960761Y-150026714D01*
X259913142Y-149979095D01*
X259341714Y-151407666D02*
X260008380Y-151407666D01*
X258960761Y-151169571D02*
X259675047Y-150931476D01*
X259675047Y-151550523D01*
X240958380Y-149026714D02*
X239958380Y-149026714D01*
X239958380Y-149264809D01*
X240006000Y-149407666D01*
X240101238Y-149502904D01*
X240196476Y-149550523D01*
X240386952Y-149598142D01*
X240529809Y-149598142D01*
X240720285Y-149550523D01*
X240815523Y-149502904D01*
X240910761Y-149407666D01*
X240958380Y-149264809D01*
X240958380Y-149026714D01*
X239958380Y-150502904D02*
X239958380Y-150026714D01*
X240434571Y-149979095D01*
X240386952Y-150026714D01*
X240339333Y-150121952D01*
X240339333Y-150360047D01*
X240386952Y-150455285D01*
X240434571Y-150502904D01*
X240529809Y-150550523D01*
X240767904Y-150550523D01*
X240863142Y-150502904D01*
X240910761Y-150455285D01*
X240958380Y-150360047D01*
X240958380Y-150121952D01*
X240910761Y-150026714D01*
X240863142Y-149979095D01*
X239958380Y-150883857D02*
X239958380Y-151502904D01*
X240339333Y-151169571D01*
X240339333Y-151312428D01*
X240386952Y-151407666D01*
X240434571Y-151455285D01*
X240529809Y-151502904D01*
X240767904Y-151502904D01*
X240863142Y-151455285D01*
X240910761Y-151407666D01*
X240958380Y-151312428D01*
X240958380Y-151026714D01*
X240910761Y-150931476D01*
X240863142Y-150883857D01*
X221908380Y-149026714D02*
X220908380Y-149026714D01*
X220908380Y-149264809D01*
X220956000Y-149407666D01*
X221051238Y-149502904D01*
X221146476Y-149550523D01*
X221336952Y-149598142D01*
X221479809Y-149598142D01*
X221670285Y-149550523D01*
X221765523Y-149502904D01*
X221860761Y-149407666D01*
X221908380Y-149264809D01*
X221908380Y-149026714D01*
X220908380Y-150502904D02*
X220908380Y-150026714D01*
X221384571Y-149979095D01*
X221336952Y-150026714D01*
X221289333Y-150121952D01*
X221289333Y-150360047D01*
X221336952Y-150455285D01*
X221384571Y-150502904D01*
X221479809Y-150550523D01*
X221717904Y-150550523D01*
X221813142Y-150502904D01*
X221860761Y-150455285D01*
X221908380Y-150360047D01*
X221908380Y-150121952D01*
X221860761Y-150026714D01*
X221813142Y-149979095D01*
X221003619Y-150931476D02*
X220956000Y-150979095D01*
X220908380Y-151074333D01*
X220908380Y-151312428D01*
X220956000Y-151407666D01*
X221003619Y-151455285D01*
X221098857Y-151502904D01*
X221194095Y-151502904D01*
X221336952Y-151455285D01*
X221908380Y-150883857D01*
X221908380Y-151502904D01*
X202858380Y-149026714D02*
X201858380Y-149026714D01*
X201858380Y-149264809D01*
X201906000Y-149407666D01*
X202001238Y-149502904D01*
X202096476Y-149550523D01*
X202286952Y-149598142D01*
X202429809Y-149598142D01*
X202620285Y-149550523D01*
X202715523Y-149502904D01*
X202810761Y-149407666D01*
X202858380Y-149264809D01*
X202858380Y-149026714D01*
X201858380Y-150502904D02*
X201858380Y-150026714D01*
X202334571Y-149979095D01*
X202286952Y-150026714D01*
X202239333Y-150121952D01*
X202239333Y-150360047D01*
X202286952Y-150455285D01*
X202334571Y-150502904D01*
X202429809Y-150550523D01*
X202667904Y-150550523D01*
X202763142Y-150502904D01*
X202810761Y-150455285D01*
X202858380Y-150360047D01*
X202858380Y-150121952D01*
X202810761Y-150026714D01*
X202763142Y-149979095D01*
X202858380Y-151502904D02*
X202858380Y-150931476D01*
X202858380Y-151217190D02*
X201858380Y-151217190D01*
X202001238Y-151121952D01*
X202096476Y-151026714D01*
X202144095Y-150931476D01*
X183808380Y-149026714D02*
X182808380Y-149026714D01*
X182808380Y-149264809D01*
X182856000Y-149407666D01*
X182951238Y-149502904D01*
X183046476Y-149550523D01*
X183236952Y-149598142D01*
X183379809Y-149598142D01*
X183570285Y-149550523D01*
X183665523Y-149502904D01*
X183760761Y-149407666D01*
X183808380Y-149264809D01*
X183808380Y-149026714D01*
X182808380Y-150502904D02*
X182808380Y-150026714D01*
X183284571Y-149979095D01*
X183236952Y-150026714D01*
X183189333Y-150121952D01*
X183189333Y-150360047D01*
X183236952Y-150455285D01*
X183284571Y-150502904D01*
X183379809Y-150550523D01*
X183617904Y-150550523D01*
X183713142Y-150502904D01*
X183760761Y-150455285D01*
X183808380Y-150360047D01*
X183808380Y-150121952D01*
X183760761Y-150026714D01*
X183713142Y-149979095D01*
X182808380Y-151169571D02*
X182808380Y-151264809D01*
X182856000Y-151360047D01*
X182903619Y-151407666D01*
X182998857Y-151455285D01*
X183189333Y-151502904D01*
X183427428Y-151502904D01*
X183617904Y-151455285D01*
X183713142Y-151407666D01*
X183760761Y-151360047D01*
X183808380Y-151264809D01*
X183808380Y-151169571D01*
X183760761Y-151074333D01*
X183713142Y-151026714D01*
X183617904Y-150979095D01*
X183427428Y-150931476D01*
X183189333Y-150931476D01*
X182998857Y-150979095D01*
X182903619Y-151026714D01*
X182856000Y-151074333D01*
X182808380Y-151169571D01*
X164758380Y-149026714D02*
X163758380Y-149026714D01*
X163758380Y-149264809D01*
X163806000Y-149407666D01*
X163901238Y-149502904D01*
X163996476Y-149550523D01*
X164186952Y-149598142D01*
X164329809Y-149598142D01*
X164520285Y-149550523D01*
X164615523Y-149502904D01*
X164710761Y-149407666D01*
X164758380Y-149264809D01*
X164758380Y-149026714D01*
X164091714Y-150455285D02*
X164758380Y-150455285D01*
X163710761Y-150217190D02*
X164425047Y-149979095D01*
X164425047Y-150598142D01*
X164758380Y-151026714D02*
X164758380Y-151217190D01*
X164710761Y-151312428D01*
X164663142Y-151360047D01*
X164520285Y-151455285D01*
X164329809Y-151502904D01*
X163948857Y-151502904D01*
X163853619Y-151455285D01*
X163806000Y-151407666D01*
X163758380Y-151312428D01*
X163758380Y-151121952D01*
X163806000Y-151026714D01*
X163853619Y-150979095D01*
X163948857Y-150931476D01*
X164186952Y-150931476D01*
X164282190Y-150979095D01*
X164329809Y-151026714D01*
X164377428Y-151121952D01*
X164377428Y-151312428D01*
X164329809Y-151407666D01*
X164282190Y-151455285D01*
X164186952Y-151502904D01*
X145708380Y-149026714D02*
X144708380Y-149026714D01*
X144708380Y-149264809D01*
X144756000Y-149407666D01*
X144851238Y-149502904D01*
X144946476Y-149550523D01*
X145136952Y-149598142D01*
X145279809Y-149598142D01*
X145470285Y-149550523D01*
X145565523Y-149502904D01*
X145660761Y-149407666D01*
X145708380Y-149264809D01*
X145708380Y-149026714D01*
X145041714Y-150455285D02*
X145708380Y-150455285D01*
X144660761Y-150217190D02*
X145375047Y-149979095D01*
X145375047Y-150598142D01*
X145136952Y-151121952D02*
X145089333Y-151026714D01*
X145041714Y-150979095D01*
X144946476Y-150931476D01*
X144898857Y-150931476D01*
X144803619Y-150979095D01*
X144756000Y-151026714D01*
X144708380Y-151121952D01*
X144708380Y-151312428D01*
X144756000Y-151407666D01*
X144803619Y-151455285D01*
X144898857Y-151502904D01*
X144946476Y-151502904D01*
X145041714Y-151455285D01*
X145089333Y-151407666D01*
X145136952Y-151312428D01*
X145136952Y-151121952D01*
X145184571Y-151026714D01*
X145232190Y-150979095D01*
X145327428Y-150931476D01*
X145517904Y-150931476D01*
X145613142Y-150979095D01*
X145660761Y-151026714D01*
X145708380Y-151121952D01*
X145708380Y-151312428D01*
X145660761Y-151407666D01*
X145613142Y-151455285D01*
X145517904Y-151502904D01*
X145327428Y-151502904D01*
X145232190Y-151455285D01*
X145184571Y-151407666D01*
X145136952Y-151312428D01*
X126658380Y-149026714D02*
X125658380Y-149026714D01*
X125658380Y-149264809D01*
X125706000Y-149407666D01*
X125801238Y-149502904D01*
X125896476Y-149550523D01*
X126086952Y-149598142D01*
X126229809Y-149598142D01*
X126420285Y-149550523D01*
X126515523Y-149502904D01*
X126610761Y-149407666D01*
X126658380Y-149264809D01*
X126658380Y-149026714D01*
X125991714Y-150455285D02*
X126658380Y-150455285D01*
X125610761Y-150217190D02*
X126325047Y-149979095D01*
X126325047Y-150598142D01*
X125658380Y-150883857D02*
X125658380Y-151550523D01*
X126658380Y-151121952D01*
X107608380Y-149026714D02*
X106608380Y-149026714D01*
X106608380Y-149264809D01*
X106656000Y-149407666D01*
X106751238Y-149502904D01*
X106846476Y-149550523D01*
X107036952Y-149598142D01*
X107179809Y-149598142D01*
X107370285Y-149550523D01*
X107465523Y-149502904D01*
X107560761Y-149407666D01*
X107608380Y-149264809D01*
X107608380Y-149026714D01*
X106941714Y-150455285D02*
X107608380Y-150455285D01*
X106560761Y-150217190D02*
X107275047Y-149979095D01*
X107275047Y-150598142D01*
X106608380Y-151407666D02*
X106608380Y-151217190D01*
X106656000Y-151121952D01*
X106703619Y-151074333D01*
X106846476Y-150979095D01*
X107036952Y-150931476D01*
X107417904Y-150931476D01*
X107513142Y-150979095D01*
X107560761Y-151026714D01*
X107608380Y-151121952D01*
X107608380Y-151312428D01*
X107560761Y-151407666D01*
X107513142Y-151455285D01*
X107417904Y-151502904D01*
X107179809Y-151502904D01*
X107084571Y-151455285D01*
X107036952Y-151407666D01*
X106989333Y-151312428D01*
X106989333Y-151121952D01*
X107036952Y-151026714D01*
X107084571Y-150979095D01*
X107179809Y-150931476D01*
X81446380Y-149026714D02*
X80446380Y-149026714D01*
X80446380Y-149264809D01*
X80494000Y-149407666D01*
X80589238Y-149502904D01*
X80684476Y-149550523D01*
X80874952Y-149598142D01*
X81017809Y-149598142D01*
X81208285Y-149550523D01*
X81303523Y-149502904D01*
X81398761Y-149407666D01*
X81446380Y-149264809D01*
X81446380Y-149026714D01*
X80779714Y-150455285D02*
X81446380Y-150455285D01*
X80398761Y-150217190D02*
X81113047Y-149979095D01*
X81113047Y-150598142D01*
X80446380Y-151455285D02*
X80446380Y-150979095D01*
X80922571Y-150931476D01*
X80874952Y-150979095D01*
X80827333Y-151074333D01*
X80827333Y-151312428D01*
X80874952Y-151407666D01*
X80922571Y-151455285D01*
X81017809Y-151502904D01*
X81255904Y-151502904D01*
X81351142Y-151455285D01*
X81398761Y-151407666D01*
X81446380Y-151312428D01*
X81446380Y-151074333D01*
X81398761Y-150979095D01*
X81351142Y-150931476D01*
X369482380Y-129976714D02*
X368482380Y-129976714D01*
X368482380Y-130214809D01*
X368530000Y-130357666D01*
X368625238Y-130452904D01*
X368720476Y-130500523D01*
X368910952Y-130548142D01*
X369053809Y-130548142D01*
X369244285Y-130500523D01*
X369339523Y-130452904D01*
X369434761Y-130357666D01*
X369482380Y-130214809D01*
X369482380Y-129976714D01*
X368815714Y-131405285D02*
X369482380Y-131405285D01*
X368434761Y-131167190D02*
X369149047Y-130929095D01*
X369149047Y-131548142D01*
X368815714Y-132357666D02*
X369482380Y-132357666D01*
X368434761Y-132119571D02*
X369149047Y-131881476D01*
X369149047Y-132500523D01*
X336208380Y-129976714D02*
X335208380Y-129976714D01*
X335208380Y-130214809D01*
X335256000Y-130357666D01*
X335351238Y-130452904D01*
X335446476Y-130500523D01*
X335636952Y-130548142D01*
X335779809Y-130548142D01*
X335970285Y-130500523D01*
X336065523Y-130452904D01*
X336160761Y-130357666D01*
X336208380Y-130214809D01*
X336208380Y-129976714D01*
X335541714Y-131405285D02*
X336208380Y-131405285D01*
X335160761Y-131167190D02*
X335875047Y-130929095D01*
X335875047Y-131548142D01*
X335208380Y-131833857D02*
X335208380Y-132452904D01*
X335589333Y-132119571D01*
X335589333Y-132262428D01*
X335636952Y-132357666D01*
X335684571Y-132405285D01*
X335779809Y-132452904D01*
X336017904Y-132452904D01*
X336113142Y-132405285D01*
X336160761Y-132357666D01*
X336208380Y-132262428D01*
X336208380Y-131976714D01*
X336160761Y-131881476D01*
X336113142Y-131833857D01*
X312332380Y-129976714D02*
X311332380Y-129976714D01*
X311332380Y-130214809D01*
X311380000Y-130357666D01*
X311475238Y-130452904D01*
X311570476Y-130500523D01*
X311760952Y-130548142D01*
X311903809Y-130548142D01*
X312094285Y-130500523D01*
X312189523Y-130452904D01*
X312284761Y-130357666D01*
X312332380Y-130214809D01*
X312332380Y-129976714D01*
X311665714Y-131405285D02*
X312332380Y-131405285D01*
X311284761Y-131167190D02*
X311999047Y-130929095D01*
X311999047Y-131548142D01*
X311427619Y-131881476D02*
X311380000Y-131929095D01*
X311332380Y-132024333D01*
X311332380Y-132262428D01*
X311380000Y-132357666D01*
X311427619Y-132405285D01*
X311522857Y-132452904D01*
X311618095Y-132452904D01*
X311760952Y-132405285D01*
X312332380Y-131833857D01*
X312332380Y-132452904D01*
X293282380Y-129976714D02*
X292282380Y-129976714D01*
X292282380Y-130214809D01*
X292330000Y-130357666D01*
X292425238Y-130452904D01*
X292520476Y-130500523D01*
X292710952Y-130548142D01*
X292853809Y-130548142D01*
X293044285Y-130500523D01*
X293139523Y-130452904D01*
X293234761Y-130357666D01*
X293282380Y-130214809D01*
X293282380Y-129976714D01*
X292615714Y-131405285D02*
X293282380Y-131405285D01*
X292234761Y-131167190D02*
X292949047Y-130929095D01*
X292949047Y-131548142D01*
X293282380Y-132452904D02*
X293282380Y-131881476D01*
X293282380Y-132167190D02*
X292282380Y-132167190D01*
X292425238Y-132071952D01*
X292520476Y-131976714D01*
X292568095Y-131881476D01*
X274232380Y-129976714D02*
X273232380Y-129976714D01*
X273232380Y-130214809D01*
X273280000Y-130357666D01*
X273375238Y-130452904D01*
X273470476Y-130500523D01*
X273660952Y-130548142D01*
X273803809Y-130548142D01*
X273994285Y-130500523D01*
X274089523Y-130452904D01*
X274184761Y-130357666D01*
X274232380Y-130214809D01*
X274232380Y-129976714D01*
X273565714Y-131405285D02*
X274232380Y-131405285D01*
X273184761Y-131167190D02*
X273899047Y-130929095D01*
X273899047Y-131548142D01*
X273232380Y-132119571D02*
X273232380Y-132214809D01*
X273280000Y-132310047D01*
X273327619Y-132357666D01*
X273422857Y-132405285D01*
X273613333Y-132452904D01*
X273851428Y-132452904D01*
X274041904Y-132405285D01*
X274137142Y-132357666D01*
X274184761Y-132310047D01*
X274232380Y-132214809D01*
X274232380Y-132119571D01*
X274184761Y-132024333D01*
X274137142Y-131976714D01*
X274041904Y-131929095D01*
X273851428Y-131881476D01*
X273613333Y-131881476D01*
X273422857Y-131929095D01*
X273327619Y-131976714D01*
X273280000Y-132024333D01*
X273232380Y-132119571D01*
X255182380Y-129976714D02*
X254182380Y-129976714D01*
X254182380Y-130214809D01*
X254230000Y-130357666D01*
X254325238Y-130452904D01*
X254420476Y-130500523D01*
X254610952Y-130548142D01*
X254753809Y-130548142D01*
X254944285Y-130500523D01*
X255039523Y-130452904D01*
X255134761Y-130357666D01*
X255182380Y-130214809D01*
X255182380Y-129976714D01*
X254182380Y-130881476D02*
X254182380Y-131500523D01*
X254563333Y-131167190D01*
X254563333Y-131310047D01*
X254610952Y-131405285D01*
X254658571Y-131452904D01*
X254753809Y-131500523D01*
X254991904Y-131500523D01*
X255087142Y-131452904D01*
X255134761Y-131405285D01*
X255182380Y-131310047D01*
X255182380Y-131024333D01*
X255134761Y-130929095D01*
X255087142Y-130881476D01*
X255182380Y-131976714D02*
X255182380Y-132167190D01*
X255134761Y-132262428D01*
X255087142Y-132310047D01*
X254944285Y-132405285D01*
X254753809Y-132452904D01*
X254372857Y-132452904D01*
X254277619Y-132405285D01*
X254230000Y-132357666D01*
X254182380Y-132262428D01*
X254182380Y-132071952D01*
X254230000Y-131976714D01*
X254277619Y-131929095D01*
X254372857Y-131881476D01*
X254610952Y-131881476D01*
X254706190Y-131929095D01*
X254753809Y-131976714D01*
X254801428Y-132071952D01*
X254801428Y-132262428D01*
X254753809Y-132357666D01*
X254706190Y-132405285D01*
X254610952Y-132452904D01*
X236132380Y-129976714D02*
X235132380Y-129976714D01*
X235132380Y-130214809D01*
X235180000Y-130357666D01*
X235275238Y-130452904D01*
X235370476Y-130500523D01*
X235560952Y-130548142D01*
X235703809Y-130548142D01*
X235894285Y-130500523D01*
X235989523Y-130452904D01*
X236084761Y-130357666D01*
X236132380Y-130214809D01*
X236132380Y-129976714D01*
X235132380Y-130881476D02*
X235132380Y-131500523D01*
X235513333Y-131167190D01*
X235513333Y-131310047D01*
X235560952Y-131405285D01*
X235608571Y-131452904D01*
X235703809Y-131500523D01*
X235941904Y-131500523D01*
X236037142Y-131452904D01*
X236084761Y-131405285D01*
X236132380Y-131310047D01*
X236132380Y-131024333D01*
X236084761Y-130929095D01*
X236037142Y-130881476D01*
X235560952Y-132071952D02*
X235513333Y-131976714D01*
X235465714Y-131929095D01*
X235370476Y-131881476D01*
X235322857Y-131881476D01*
X235227619Y-131929095D01*
X235180000Y-131976714D01*
X235132380Y-132071952D01*
X235132380Y-132262428D01*
X235180000Y-132357666D01*
X235227619Y-132405285D01*
X235322857Y-132452904D01*
X235370476Y-132452904D01*
X235465714Y-132405285D01*
X235513333Y-132357666D01*
X235560952Y-132262428D01*
X235560952Y-132071952D01*
X235608571Y-131976714D01*
X235656190Y-131929095D01*
X235751428Y-131881476D01*
X235941904Y-131881476D01*
X236037142Y-131929095D01*
X236084761Y-131976714D01*
X236132380Y-132071952D01*
X236132380Y-132262428D01*
X236084761Y-132357666D01*
X236037142Y-132405285D01*
X235941904Y-132452904D01*
X235751428Y-132452904D01*
X235656190Y-132405285D01*
X235608571Y-132357666D01*
X235560952Y-132262428D01*
X217082380Y-129976714D02*
X216082380Y-129976714D01*
X216082380Y-130214809D01*
X216130000Y-130357666D01*
X216225238Y-130452904D01*
X216320476Y-130500523D01*
X216510952Y-130548142D01*
X216653809Y-130548142D01*
X216844285Y-130500523D01*
X216939523Y-130452904D01*
X217034761Y-130357666D01*
X217082380Y-130214809D01*
X217082380Y-129976714D01*
X216082380Y-130881476D02*
X216082380Y-131500523D01*
X216463333Y-131167190D01*
X216463333Y-131310047D01*
X216510952Y-131405285D01*
X216558571Y-131452904D01*
X216653809Y-131500523D01*
X216891904Y-131500523D01*
X216987142Y-131452904D01*
X217034761Y-131405285D01*
X217082380Y-131310047D01*
X217082380Y-131024333D01*
X217034761Y-130929095D01*
X216987142Y-130881476D01*
X216082380Y-131833857D02*
X216082380Y-132500523D01*
X217082380Y-132071952D01*
X198032380Y-129976714D02*
X197032380Y-129976714D01*
X197032380Y-130214809D01*
X197080000Y-130357666D01*
X197175238Y-130452904D01*
X197270476Y-130500523D01*
X197460952Y-130548142D01*
X197603809Y-130548142D01*
X197794285Y-130500523D01*
X197889523Y-130452904D01*
X197984761Y-130357666D01*
X198032380Y-130214809D01*
X198032380Y-129976714D01*
X197032380Y-130881476D02*
X197032380Y-131500523D01*
X197413333Y-131167190D01*
X197413333Y-131310047D01*
X197460952Y-131405285D01*
X197508571Y-131452904D01*
X197603809Y-131500523D01*
X197841904Y-131500523D01*
X197937142Y-131452904D01*
X197984761Y-131405285D01*
X198032380Y-131310047D01*
X198032380Y-131024333D01*
X197984761Y-130929095D01*
X197937142Y-130881476D01*
X197032380Y-132357666D02*
X197032380Y-132167190D01*
X197080000Y-132071952D01*
X197127619Y-132024333D01*
X197270476Y-131929095D01*
X197460952Y-131881476D01*
X197841904Y-131881476D01*
X197937142Y-131929095D01*
X197984761Y-131976714D01*
X198032380Y-132071952D01*
X198032380Y-132262428D01*
X197984761Y-132357666D01*
X197937142Y-132405285D01*
X197841904Y-132452904D01*
X197603809Y-132452904D01*
X197508571Y-132405285D01*
X197460952Y-132357666D01*
X197413333Y-132262428D01*
X197413333Y-132071952D01*
X197460952Y-131976714D01*
X197508571Y-131929095D01*
X197603809Y-131881476D01*
X178982380Y-129976714D02*
X177982380Y-129976714D01*
X177982380Y-130214809D01*
X178030000Y-130357666D01*
X178125238Y-130452904D01*
X178220476Y-130500523D01*
X178410952Y-130548142D01*
X178553809Y-130548142D01*
X178744285Y-130500523D01*
X178839523Y-130452904D01*
X178934761Y-130357666D01*
X178982380Y-130214809D01*
X178982380Y-129976714D01*
X177982380Y-130881476D02*
X177982380Y-131500523D01*
X178363333Y-131167190D01*
X178363333Y-131310047D01*
X178410952Y-131405285D01*
X178458571Y-131452904D01*
X178553809Y-131500523D01*
X178791904Y-131500523D01*
X178887142Y-131452904D01*
X178934761Y-131405285D01*
X178982380Y-131310047D01*
X178982380Y-131024333D01*
X178934761Y-130929095D01*
X178887142Y-130881476D01*
X177982380Y-132405285D02*
X177982380Y-131929095D01*
X178458571Y-131881476D01*
X178410952Y-131929095D01*
X178363333Y-132024333D01*
X178363333Y-132262428D01*
X178410952Y-132357666D01*
X178458571Y-132405285D01*
X178553809Y-132452904D01*
X178791904Y-132452904D01*
X178887142Y-132405285D01*
X178934761Y-132357666D01*
X178982380Y-132262428D01*
X178982380Y-132024333D01*
X178934761Y-131929095D01*
X178887142Y-131881476D01*
X159932380Y-129976714D02*
X158932380Y-129976714D01*
X158932380Y-130214809D01*
X158980000Y-130357666D01*
X159075238Y-130452904D01*
X159170476Y-130500523D01*
X159360952Y-130548142D01*
X159503809Y-130548142D01*
X159694285Y-130500523D01*
X159789523Y-130452904D01*
X159884761Y-130357666D01*
X159932380Y-130214809D01*
X159932380Y-129976714D01*
X158932380Y-130881476D02*
X158932380Y-131500523D01*
X159313333Y-131167190D01*
X159313333Y-131310047D01*
X159360952Y-131405285D01*
X159408571Y-131452904D01*
X159503809Y-131500523D01*
X159741904Y-131500523D01*
X159837142Y-131452904D01*
X159884761Y-131405285D01*
X159932380Y-131310047D01*
X159932380Y-131024333D01*
X159884761Y-130929095D01*
X159837142Y-130881476D01*
X159265714Y-132357666D02*
X159932380Y-132357666D01*
X158884761Y-132119571D02*
X159599047Y-131881476D01*
X159599047Y-132500523D01*
X140882380Y-129976714D02*
X139882380Y-129976714D01*
X139882380Y-130214809D01*
X139930000Y-130357666D01*
X140025238Y-130452904D01*
X140120476Y-130500523D01*
X140310952Y-130548142D01*
X140453809Y-130548142D01*
X140644285Y-130500523D01*
X140739523Y-130452904D01*
X140834761Y-130357666D01*
X140882380Y-130214809D01*
X140882380Y-129976714D01*
X139882380Y-130881476D02*
X139882380Y-131500523D01*
X140263333Y-131167190D01*
X140263333Y-131310047D01*
X140310952Y-131405285D01*
X140358571Y-131452904D01*
X140453809Y-131500523D01*
X140691904Y-131500523D01*
X140787142Y-131452904D01*
X140834761Y-131405285D01*
X140882380Y-131310047D01*
X140882380Y-131024333D01*
X140834761Y-130929095D01*
X140787142Y-130881476D01*
X139882380Y-131833857D02*
X139882380Y-132452904D01*
X140263333Y-132119571D01*
X140263333Y-132262428D01*
X140310952Y-132357666D01*
X140358571Y-132405285D01*
X140453809Y-132452904D01*
X140691904Y-132452904D01*
X140787142Y-132405285D01*
X140834761Y-132357666D01*
X140882380Y-132262428D01*
X140882380Y-131976714D01*
X140834761Y-131881476D01*
X140787142Y-131833857D01*
X121832380Y-129976714D02*
X120832380Y-129976714D01*
X120832380Y-130214809D01*
X120880000Y-130357666D01*
X120975238Y-130452904D01*
X121070476Y-130500523D01*
X121260952Y-130548142D01*
X121403809Y-130548142D01*
X121594285Y-130500523D01*
X121689523Y-130452904D01*
X121784761Y-130357666D01*
X121832380Y-130214809D01*
X121832380Y-129976714D01*
X120832380Y-130881476D02*
X120832380Y-131500523D01*
X121213333Y-131167190D01*
X121213333Y-131310047D01*
X121260952Y-131405285D01*
X121308571Y-131452904D01*
X121403809Y-131500523D01*
X121641904Y-131500523D01*
X121737142Y-131452904D01*
X121784761Y-131405285D01*
X121832380Y-131310047D01*
X121832380Y-131024333D01*
X121784761Y-130929095D01*
X121737142Y-130881476D01*
X120927619Y-131881476D02*
X120880000Y-131929095D01*
X120832380Y-132024333D01*
X120832380Y-132262428D01*
X120880000Y-132357666D01*
X120927619Y-132405285D01*
X121022857Y-132452904D01*
X121118095Y-132452904D01*
X121260952Y-132405285D01*
X121832380Y-131833857D01*
X121832380Y-132452904D01*
X102782380Y-129976714D02*
X101782380Y-129976714D01*
X101782380Y-130214809D01*
X101830000Y-130357666D01*
X101925238Y-130452904D01*
X102020476Y-130500523D01*
X102210952Y-130548142D01*
X102353809Y-130548142D01*
X102544285Y-130500523D01*
X102639523Y-130452904D01*
X102734761Y-130357666D01*
X102782380Y-130214809D01*
X102782380Y-129976714D01*
X101782380Y-130881476D02*
X101782380Y-131500523D01*
X102163333Y-131167190D01*
X102163333Y-131310047D01*
X102210952Y-131405285D01*
X102258571Y-131452904D01*
X102353809Y-131500523D01*
X102591904Y-131500523D01*
X102687142Y-131452904D01*
X102734761Y-131405285D01*
X102782380Y-131310047D01*
X102782380Y-131024333D01*
X102734761Y-130929095D01*
X102687142Y-130881476D01*
X102782380Y-132452904D02*
X102782380Y-131881476D01*
X102782380Y-132167190D02*
X101782380Y-132167190D01*
X101925238Y-132071952D01*
X102020476Y-131976714D01*
X102068095Y-131881476D01*
X79033380Y-129976714D02*
X78033380Y-129976714D01*
X78033380Y-130214809D01*
X78081000Y-130357666D01*
X78176238Y-130452904D01*
X78271476Y-130500523D01*
X78461952Y-130548142D01*
X78604809Y-130548142D01*
X78795285Y-130500523D01*
X78890523Y-130452904D01*
X78985761Y-130357666D01*
X79033380Y-130214809D01*
X79033380Y-129976714D01*
X78033380Y-130881476D02*
X78033380Y-131500523D01*
X78414333Y-131167190D01*
X78414333Y-131310047D01*
X78461952Y-131405285D01*
X78509571Y-131452904D01*
X78604809Y-131500523D01*
X78842904Y-131500523D01*
X78938142Y-131452904D01*
X78985761Y-131405285D01*
X79033380Y-131310047D01*
X79033380Y-131024333D01*
X78985761Y-130929095D01*
X78938142Y-130881476D01*
X78033380Y-132119571D02*
X78033380Y-132214809D01*
X78081000Y-132310047D01*
X78128619Y-132357666D01*
X78223857Y-132405285D01*
X78414333Y-132452904D01*
X78652428Y-132452904D01*
X78842904Y-132405285D01*
X78938142Y-132357666D01*
X78985761Y-132310047D01*
X79033380Y-132214809D01*
X79033380Y-132119571D01*
X78985761Y-132024333D01*
X78938142Y-131976714D01*
X78842904Y-131929095D01*
X78652428Y-131881476D01*
X78414333Y-131881476D01*
X78223857Y-131929095D01*
X78128619Y-131976714D01*
X78081000Y-132024333D01*
X78033380Y-132119571D01*
X369482380Y-110926714D02*
X368482380Y-110926714D01*
X368482380Y-111164809D01*
X368530000Y-111307666D01*
X368625238Y-111402904D01*
X368720476Y-111450523D01*
X368910952Y-111498142D01*
X369053809Y-111498142D01*
X369244285Y-111450523D01*
X369339523Y-111402904D01*
X369434761Y-111307666D01*
X369482380Y-111164809D01*
X369482380Y-110926714D01*
X368577619Y-111879095D02*
X368530000Y-111926714D01*
X368482380Y-112021952D01*
X368482380Y-112260047D01*
X368530000Y-112355285D01*
X368577619Y-112402904D01*
X368672857Y-112450523D01*
X368768095Y-112450523D01*
X368910952Y-112402904D01*
X369482380Y-111831476D01*
X369482380Y-112450523D01*
X369482380Y-112926714D02*
X369482380Y-113117190D01*
X369434761Y-113212428D01*
X369387142Y-113260047D01*
X369244285Y-113355285D01*
X369053809Y-113402904D01*
X368672857Y-113402904D01*
X368577619Y-113355285D01*
X368530000Y-113307666D01*
X368482380Y-113212428D01*
X368482380Y-113021952D01*
X368530000Y-112926714D01*
X368577619Y-112879095D01*
X368672857Y-112831476D01*
X368910952Y-112831476D01*
X369006190Y-112879095D01*
X369053809Y-112926714D01*
X369101428Y-113021952D01*
X369101428Y-113212428D01*
X369053809Y-113307666D01*
X369006190Y-113355285D01*
X368910952Y-113402904D01*
X331382380Y-110926714D02*
X330382380Y-110926714D01*
X330382380Y-111164809D01*
X330430000Y-111307666D01*
X330525238Y-111402904D01*
X330620476Y-111450523D01*
X330810952Y-111498142D01*
X330953809Y-111498142D01*
X331144285Y-111450523D01*
X331239523Y-111402904D01*
X331334761Y-111307666D01*
X331382380Y-111164809D01*
X331382380Y-110926714D01*
X330477619Y-111879095D02*
X330430000Y-111926714D01*
X330382380Y-112021952D01*
X330382380Y-112260047D01*
X330430000Y-112355285D01*
X330477619Y-112402904D01*
X330572857Y-112450523D01*
X330668095Y-112450523D01*
X330810952Y-112402904D01*
X331382380Y-111831476D01*
X331382380Y-112450523D01*
X330810952Y-113021952D02*
X330763333Y-112926714D01*
X330715714Y-112879095D01*
X330620476Y-112831476D01*
X330572857Y-112831476D01*
X330477619Y-112879095D01*
X330430000Y-112926714D01*
X330382380Y-113021952D01*
X330382380Y-113212428D01*
X330430000Y-113307666D01*
X330477619Y-113355285D01*
X330572857Y-113402904D01*
X330620476Y-113402904D01*
X330715714Y-113355285D01*
X330763333Y-113307666D01*
X330810952Y-113212428D01*
X330810952Y-113021952D01*
X330858571Y-112926714D01*
X330906190Y-112879095D01*
X331001428Y-112831476D01*
X331191904Y-112831476D01*
X331287142Y-112879095D01*
X331334761Y-112926714D01*
X331382380Y-113021952D01*
X331382380Y-113212428D01*
X331334761Y-113307666D01*
X331287142Y-113355285D01*
X331191904Y-113402904D01*
X331001428Y-113402904D01*
X330906190Y-113355285D01*
X330858571Y-113307666D01*
X330810952Y-113212428D01*
X302807380Y-110926714D02*
X301807380Y-110926714D01*
X301807380Y-111164809D01*
X301855000Y-111307666D01*
X301950238Y-111402904D01*
X302045476Y-111450523D01*
X302235952Y-111498142D01*
X302378809Y-111498142D01*
X302569285Y-111450523D01*
X302664523Y-111402904D01*
X302759761Y-111307666D01*
X302807380Y-111164809D01*
X302807380Y-110926714D01*
X301902619Y-111879095D02*
X301855000Y-111926714D01*
X301807380Y-112021952D01*
X301807380Y-112260047D01*
X301855000Y-112355285D01*
X301902619Y-112402904D01*
X301997857Y-112450523D01*
X302093095Y-112450523D01*
X302235952Y-112402904D01*
X302807380Y-111831476D01*
X302807380Y-112450523D01*
X301807380Y-112783857D02*
X301807380Y-113450523D01*
X302807380Y-113021952D01*
X283757380Y-110926714D02*
X282757380Y-110926714D01*
X282757380Y-111164809D01*
X282805000Y-111307666D01*
X282900238Y-111402904D01*
X282995476Y-111450523D01*
X283185952Y-111498142D01*
X283328809Y-111498142D01*
X283519285Y-111450523D01*
X283614523Y-111402904D01*
X283709761Y-111307666D01*
X283757380Y-111164809D01*
X283757380Y-110926714D01*
X282852619Y-111879095D02*
X282805000Y-111926714D01*
X282757380Y-112021952D01*
X282757380Y-112260047D01*
X282805000Y-112355285D01*
X282852619Y-112402904D01*
X282947857Y-112450523D01*
X283043095Y-112450523D01*
X283185952Y-112402904D01*
X283757380Y-111831476D01*
X283757380Y-112450523D01*
X282757380Y-113307666D02*
X282757380Y-113117190D01*
X282805000Y-113021952D01*
X282852619Y-112974333D01*
X282995476Y-112879095D01*
X283185952Y-112831476D01*
X283566904Y-112831476D01*
X283662142Y-112879095D01*
X283709761Y-112926714D01*
X283757380Y-113021952D01*
X283757380Y-113212428D01*
X283709761Y-113307666D01*
X283662142Y-113355285D01*
X283566904Y-113402904D01*
X283328809Y-113402904D01*
X283233571Y-113355285D01*
X283185952Y-113307666D01*
X283138333Y-113212428D01*
X283138333Y-113021952D01*
X283185952Y-112926714D01*
X283233571Y-112879095D01*
X283328809Y-112831476D01*
X264707380Y-110926714D02*
X263707380Y-110926714D01*
X263707380Y-111164809D01*
X263755000Y-111307666D01*
X263850238Y-111402904D01*
X263945476Y-111450523D01*
X264135952Y-111498142D01*
X264278809Y-111498142D01*
X264469285Y-111450523D01*
X264564523Y-111402904D01*
X264659761Y-111307666D01*
X264707380Y-111164809D01*
X264707380Y-110926714D01*
X263802619Y-111879095D02*
X263755000Y-111926714D01*
X263707380Y-112021952D01*
X263707380Y-112260047D01*
X263755000Y-112355285D01*
X263802619Y-112402904D01*
X263897857Y-112450523D01*
X263993095Y-112450523D01*
X264135952Y-112402904D01*
X264707380Y-111831476D01*
X264707380Y-112450523D01*
X263707380Y-113355285D02*
X263707380Y-112879095D01*
X264183571Y-112831476D01*
X264135952Y-112879095D01*
X264088333Y-112974333D01*
X264088333Y-113212428D01*
X264135952Y-113307666D01*
X264183571Y-113355285D01*
X264278809Y-113402904D01*
X264516904Y-113402904D01*
X264612142Y-113355285D01*
X264659761Y-113307666D01*
X264707380Y-113212428D01*
X264707380Y-112974333D01*
X264659761Y-112879095D01*
X264612142Y-112831476D01*
X245657380Y-110926714D02*
X244657380Y-110926714D01*
X244657380Y-111164809D01*
X244705000Y-111307666D01*
X244800238Y-111402904D01*
X244895476Y-111450523D01*
X245085952Y-111498142D01*
X245228809Y-111498142D01*
X245419285Y-111450523D01*
X245514523Y-111402904D01*
X245609761Y-111307666D01*
X245657380Y-111164809D01*
X245657380Y-110926714D01*
X244752619Y-111879095D02*
X244705000Y-111926714D01*
X244657380Y-112021952D01*
X244657380Y-112260047D01*
X244705000Y-112355285D01*
X244752619Y-112402904D01*
X244847857Y-112450523D01*
X244943095Y-112450523D01*
X245085952Y-112402904D01*
X245657380Y-111831476D01*
X245657380Y-112450523D01*
X244990714Y-113307666D02*
X245657380Y-113307666D01*
X244609761Y-113069571D02*
X245324047Y-112831476D01*
X245324047Y-113450523D01*
X226607380Y-110926714D02*
X225607380Y-110926714D01*
X225607380Y-111164809D01*
X225655000Y-111307666D01*
X225750238Y-111402904D01*
X225845476Y-111450523D01*
X226035952Y-111498142D01*
X226178809Y-111498142D01*
X226369285Y-111450523D01*
X226464523Y-111402904D01*
X226559761Y-111307666D01*
X226607380Y-111164809D01*
X226607380Y-110926714D01*
X225702619Y-111879095D02*
X225655000Y-111926714D01*
X225607380Y-112021952D01*
X225607380Y-112260047D01*
X225655000Y-112355285D01*
X225702619Y-112402904D01*
X225797857Y-112450523D01*
X225893095Y-112450523D01*
X226035952Y-112402904D01*
X226607380Y-111831476D01*
X226607380Y-112450523D01*
X225607380Y-112783857D02*
X225607380Y-113402904D01*
X225988333Y-113069571D01*
X225988333Y-113212428D01*
X226035952Y-113307666D01*
X226083571Y-113355285D01*
X226178809Y-113402904D01*
X226416904Y-113402904D01*
X226512142Y-113355285D01*
X226559761Y-113307666D01*
X226607380Y-113212428D01*
X226607380Y-112926714D01*
X226559761Y-112831476D01*
X226512142Y-112783857D01*
X207557380Y-110926714D02*
X206557380Y-110926714D01*
X206557380Y-111164809D01*
X206605000Y-111307666D01*
X206700238Y-111402904D01*
X206795476Y-111450523D01*
X206985952Y-111498142D01*
X207128809Y-111498142D01*
X207319285Y-111450523D01*
X207414523Y-111402904D01*
X207509761Y-111307666D01*
X207557380Y-111164809D01*
X207557380Y-110926714D01*
X206652619Y-111879095D02*
X206605000Y-111926714D01*
X206557380Y-112021952D01*
X206557380Y-112260047D01*
X206605000Y-112355285D01*
X206652619Y-112402904D01*
X206747857Y-112450523D01*
X206843095Y-112450523D01*
X206985952Y-112402904D01*
X207557380Y-111831476D01*
X207557380Y-112450523D01*
X206652619Y-112831476D02*
X206605000Y-112879095D01*
X206557380Y-112974333D01*
X206557380Y-113212428D01*
X206605000Y-113307666D01*
X206652619Y-113355285D01*
X206747857Y-113402904D01*
X206843095Y-113402904D01*
X206985952Y-113355285D01*
X207557380Y-112783857D01*
X207557380Y-113402904D01*
X188507380Y-110926714D02*
X187507380Y-110926714D01*
X187507380Y-111164809D01*
X187555000Y-111307666D01*
X187650238Y-111402904D01*
X187745476Y-111450523D01*
X187935952Y-111498142D01*
X188078809Y-111498142D01*
X188269285Y-111450523D01*
X188364523Y-111402904D01*
X188459761Y-111307666D01*
X188507380Y-111164809D01*
X188507380Y-110926714D01*
X187602619Y-111879095D02*
X187555000Y-111926714D01*
X187507380Y-112021952D01*
X187507380Y-112260047D01*
X187555000Y-112355285D01*
X187602619Y-112402904D01*
X187697857Y-112450523D01*
X187793095Y-112450523D01*
X187935952Y-112402904D01*
X188507380Y-111831476D01*
X188507380Y-112450523D01*
X188507380Y-113402904D02*
X188507380Y-112831476D01*
X188507380Y-113117190D02*
X187507380Y-113117190D01*
X187650238Y-113021952D01*
X187745476Y-112926714D01*
X187793095Y-112831476D01*
X169457380Y-110926714D02*
X168457380Y-110926714D01*
X168457380Y-111164809D01*
X168505000Y-111307666D01*
X168600238Y-111402904D01*
X168695476Y-111450523D01*
X168885952Y-111498142D01*
X169028809Y-111498142D01*
X169219285Y-111450523D01*
X169314523Y-111402904D01*
X169409761Y-111307666D01*
X169457380Y-111164809D01*
X169457380Y-110926714D01*
X168552619Y-111879095D02*
X168505000Y-111926714D01*
X168457380Y-112021952D01*
X168457380Y-112260047D01*
X168505000Y-112355285D01*
X168552619Y-112402904D01*
X168647857Y-112450523D01*
X168743095Y-112450523D01*
X168885952Y-112402904D01*
X169457380Y-111831476D01*
X169457380Y-112450523D01*
X168457380Y-113069571D02*
X168457380Y-113164809D01*
X168505000Y-113260047D01*
X168552619Y-113307666D01*
X168647857Y-113355285D01*
X168838333Y-113402904D01*
X169076428Y-113402904D01*
X169266904Y-113355285D01*
X169362142Y-113307666D01*
X169409761Y-113260047D01*
X169457380Y-113164809D01*
X169457380Y-113069571D01*
X169409761Y-112974333D01*
X169362142Y-112926714D01*
X169266904Y-112879095D01*
X169076428Y-112831476D01*
X168838333Y-112831476D01*
X168647857Y-112879095D01*
X168552619Y-112926714D01*
X168505000Y-112974333D01*
X168457380Y-113069571D01*
X150407380Y-110926714D02*
X149407380Y-110926714D01*
X149407380Y-111164809D01*
X149455000Y-111307666D01*
X149550238Y-111402904D01*
X149645476Y-111450523D01*
X149835952Y-111498142D01*
X149978809Y-111498142D01*
X150169285Y-111450523D01*
X150264523Y-111402904D01*
X150359761Y-111307666D01*
X150407380Y-111164809D01*
X150407380Y-110926714D01*
X150407380Y-112450523D02*
X150407380Y-111879095D01*
X150407380Y-112164809D02*
X149407380Y-112164809D01*
X149550238Y-112069571D01*
X149645476Y-111974333D01*
X149693095Y-111879095D01*
X150407380Y-112926714D02*
X150407380Y-113117190D01*
X150359761Y-113212428D01*
X150312142Y-113260047D01*
X150169285Y-113355285D01*
X149978809Y-113402904D01*
X149597857Y-113402904D01*
X149502619Y-113355285D01*
X149455000Y-113307666D01*
X149407380Y-113212428D01*
X149407380Y-113021952D01*
X149455000Y-112926714D01*
X149502619Y-112879095D01*
X149597857Y-112831476D01*
X149835952Y-112831476D01*
X149931190Y-112879095D01*
X149978809Y-112926714D01*
X150026428Y-113021952D01*
X150026428Y-113212428D01*
X149978809Y-113307666D01*
X149931190Y-113355285D01*
X149835952Y-113402904D01*
X131357380Y-110926714D02*
X130357380Y-110926714D01*
X130357380Y-111164809D01*
X130405000Y-111307666D01*
X130500238Y-111402904D01*
X130595476Y-111450523D01*
X130785952Y-111498142D01*
X130928809Y-111498142D01*
X131119285Y-111450523D01*
X131214523Y-111402904D01*
X131309761Y-111307666D01*
X131357380Y-111164809D01*
X131357380Y-110926714D01*
X131357380Y-112450523D02*
X131357380Y-111879095D01*
X131357380Y-112164809D02*
X130357380Y-112164809D01*
X130500238Y-112069571D01*
X130595476Y-111974333D01*
X130643095Y-111879095D01*
X130785952Y-113021952D02*
X130738333Y-112926714D01*
X130690714Y-112879095D01*
X130595476Y-112831476D01*
X130547857Y-112831476D01*
X130452619Y-112879095D01*
X130405000Y-112926714D01*
X130357380Y-113021952D01*
X130357380Y-113212428D01*
X130405000Y-113307666D01*
X130452619Y-113355285D01*
X130547857Y-113402904D01*
X130595476Y-113402904D01*
X130690714Y-113355285D01*
X130738333Y-113307666D01*
X130785952Y-113212428D01*
X130785952Y-113021952D01*
X130833571Y-112926714D01*
X130881190Y-112879095D01*
X130976428Y-112831476D01*
X131166904Y-112831476D01*
X131262142Y-112879095D01*
X131309761Y-112926714D01*
X131357380Y-113021952D01*
X131357380Y-113212428D01*
X131309761Y-113307666D01*
X131262142Y-113355285D01*
X131166904Y-113402904D01*
X130976428Y-113402904D01*
X130881190Y-113355285D01*
X130833571Y-113307666D01*
X130785952Y-113212428D01*
X112307380Y-110926714D02*
X111307380Y-110926714D01*
X111307380Y-111164809D01*
X111355000Y-111307666D01*
X111450238Y-111402904D01*
X111545476Y-111450523D01*
X111735952Y-111498142D01*
X111878809Y-111498142D01*
X112069285Y-111450523D01*
X112164523Y-111402904D01*
X112259761Y-111307666D01*
X112307380Y-111164809D01*
X112307380Y-110926714D01*
X112307380Y-112450523D02*
X112307380Y-111879095D01*
X112307380Y-112164809D02*
X111307380Y-112164809D01*
X111450238Y-112069571D01*
X111545476Y-111974333D01*
X111593095Y-111879095D01*
X111307380Y-112783857D02*
X111307380Y-113450523D01*
X112307380Y-113021952D01*
X93257380Y-110926714D02*
X92257380Y-110926714D01*
X92257380Y-111164809D01*
X92305000Y-111307666D01*
X92400238Y-111402904D01*
X92495476Y-111450523D01*
X92685952Y-111498142D01*
X92828809Y-111498142D01*
X93019285Y-111450523D01*
X93114523Y-111402904D01*
X93209761Y-111307666D01*
X93257380Y-111164809D01*
X93257380Y-110926714D01*
X93257380Y-112450523D02*
X93257380Y-111879095D01*
X93257380Y-112164809D02*
X92257380Y-112164809D01*
X92400238Y-112069571D01*
X92495476Y-111974333D01*
X92543095Y-111879095D01*
X92257380Y-113307666D02*
X92257380Y-113117190D01*
X92305000Y-113021952D01*
X92352619Y-112974333D01*
X92495476Y-112879095D01*
X92685952Y-112831476D01*
X93066904Y-112831476D01*
X93162142Y-112879095D01*
X93209761Y-112926714D01*
X93257380Y-113021952D01*
X93257380Y-113212428D01*
X93209761Y-113307666D01*
X93162142Y-113355285D01*
X93066904Y-113402904D01*
X92828809Y-113402904D01*
X92733571Y-113355285D01*
X92685952Y-113307666D01*
X92638333Y-113212428D01*
X92638333Y-113021952D01*
X92685952Y-112926714D01*
X92733571Y-112879095D01*
X92828809Y-112831476D01*
X74207380Y-110926714D02*
X73207380Y-110926714D01*
X73207380Y-111164809D01*
X73255000Y-111307666D01*
X73350238Y-111402904D01*
X73445476Y-111450523D01*
X73635952Y-111498142D01*
X73778809Y-111498142D01*
X73969285Y-111450523D01*
X74064523Y-111402904D01*
X74159761Y-111307666D01*
X74207380Y-111164809D01*
X74207380Y-110926714D01*
X74207380Y-112450523D02*
X74207380Y-111879095D01*
X74207380Y-112164809D02*
X73207380Y-112164809D01*
X73350238Y-112069571D01*
X73445476Y-111974333D01*
X73493095Y-111879095D01*
X73207380Y-113355285D02*
X73207380Y-112879095D01*
X73683571Y-112831476D01*
X73635952Y-112879095D01*
X73588333Y-112974333D01*
X73588333Y-113212428D01*
X73635952Y-113307666D01*
X73683571Y-113355285D01*
X73778809Y-113402904D01*
X74016904Y-113402904D01*
X74112142Y-113355285D01*
X74159761Y-113307666D01*
X74207380Y-113212428D01*
X74207380Y-112974333D01*
X74159761Y-112879095D01*
X74112142Y-112831476D01*
X340907380Y-87050714D02*
X339907380Y-87050714D01*
X339907380Y-87288809D01*
X339955000Y-87431666D01*
X340050238Y-87526904D01*
X340145476Y-87574523D01*
X340335952Y-87622142D01*
X340478809Y-87622142D01*
X340669285Y-87574523D01*
X340764523Y-87526904D01*
X340859761Y-87431666D01*
X340907380Y-87288809D01*
X340907380Y-87050714D01*
X340907380Y-88574523D02*
X340907380Y-88003095D01*
X340907380Y-88288809D02*
X339907380Y-88288809D01*
X340050238Y-88193571D01*
X340145476Y-88098333D01*
X340193095Y-88003095D01*
X340240714Y-89431666D02*
X340907380Y-89431666D01*
X339859761Y-89193571D02*
X340574047Y-88955476D01*
X340574047Y-89574523D01*
X317158380Y-87050714D02*
X316158380Y-87050714D01*
X316158380Y-87288809D01*
X316206000Y-87431666D01*
X316301238Y-87526904D01*
X316396476Y-87574523D01*
X316586952Y-87622142D01*
X316729809Y-87622142D01*
X316920285Y-87574523D01*
X317015523Y-87526904D01*
X317110761Y-87431666D01*
X317158380Y-87288809D01*
X317158380Y-87050714D01*
X317158380Y-88574523D02*
X317158380Y-88003095D01*
X317158380Y-88288809D02*
X316158380Y-88288809D01*
X316301238Y-88193571D01*
X316396476Y-88098333D01*
X316444095Y-88003095D01*
X316158380Y-88907857D02*
X316158380Y-89526904D01*
X316539333Y-89193571D01*
X316539333Y-89336428D01*
X316586952Y-89431666D01*
X316634571Y-89479285D01*
X316729809Y-89526904D01*
X316967904Y-89526904D01*
X317063142Y-89479285D01*
X317110761Y-89431666D01*
X317158380Y-89336428D01*
X317158380Y-89050714D01*
X317110761Y-88955476D01*
X317063142Y-88907857D01*
X298108380Y-87050714D02*
X297108380Y-87050714D01*
X297108380Y-87288809D01*
X297156000Y-87431666D01*
X297251238Y-87526904D01*
X297346476Y-87574523D01*
X297536952Y-87622142D01*
X297679809Y-87622142D01*
X297870285Y-87574523D01*
X297965523Y-87526904D01*
X298060761Y-87431666D01*
X298108380Y-87288809D01*
X298108380Y-87050714D01*
X298108380Y-88574523D02*
X298108380Y-88003095D01*
X298108380Y-88288809D02*
X297108380Y-88288809D01*
X297251238Y-88193571D01*
X297346476Y-88098333D01*
X297394095Y-88003095D01*
X297203619Y-88955476D02*
X297156000Y-89003095D01*
X297108380Y-89098333D01*
X297108380Y-89336428D01*
X297156000Y-89431666D01*
X297203619Y-89479285D01*
X297298857Y-89526904D01*
X297394095Y-89526904D01*
X297536952Y-89479285D01*
X298108380Y-88907857D01*
X298108380Y-89526904D01*
X279058380Y-87050714D02*
X278058380Y-87050714D01*
X278058380Y-87288809D01*
X278106000Y-87431666D01*
X278201238Y-87526904D01*
X278296476Y-87574523D01*
X278486952Y-87622142D01*
X278629809Y-87622142D01*
X278820285Y-87574523D01*
X278915523Y-87526904D01*
X279010761Y-87431666D01*
X279058380Y-87288809D01*
X279058380Y-87050714D01*
X279058380Y-88574523D02*
X279058380Y-88003095D01*
X279058380Y-88288809D02*
X278058380Y-88288809D01*
X278201238Y-88193571D01*
X278296476Y-88098333D01*
X278344095Y-88003095D01*
X279058380Y-89526904D02*
X279058380Y-88955476D01*
X279058380Y-89241190D02*
X278058380Y-89241190D01*
X278201238Y-89145952D01*
X278296476Y-89050714D01*
X278344095Y-88955476D01*
X260008380Y-87050714D02*
X259008380Y-87050714D01*
X259008380Y-87288809D01*
X259056000Y-87431666D01*
X259151238Y-87526904D01*
X259246476Y-87574523D01*
X259436952Y-87622142D01*
X259579809Y-87622142D01*
X259770285Y-87574523D01*
X259865523Y-87526904D01*
X259960761Y-87431666D01*
X260008380Y-87288809D01*
X260008380Y-87050714D01*
X260008380Y-88574523D02*
X260008380Y-88003095D01*
X260008380Y-88288809D02*
X259008380Y-88288809D01*
X259151238Y-88193571D01*
X259246476Y-88098333D01*
X259294095Y-88003095D01*
X259008380Y-89193571D02*
X259008380Y-89288809D01*
X259056000Y-89384047D01*
X259103619Y-89431666D01*
X259198857Y-89479285D01*
X259389333Y-89526904D01*
X259627428Y-89526904D01*
X259817904Y-89479285D01*
X259913142Y-89431666D01*
X259960761Y-89384047D01*
X260008380Y-89288809D01*
X260008380Y-89193571D01*
X259960761Y-89098333D01*
X259913142Y-89050714D01*
X259817904Y-89003095D01*
X259627428Y-88955476D01*
X259389333Y-88955476D01*
X259198857Y-89003095D01*
X259103619Y-89050714D01*
X259056000Y-89098333D01*
X259008380Y-89193571D01*
X236132380Y-87526904D02*
X235132380Y-87526904D01*
X235132380Y-87765000D01*
X235180000Y-87907857D01*
X235275238Y-88003095D01*
X235370476Y-88050714D01*
X235560952Y-88098333D01*
X235703809Y-88098333D01*
X235894285Y-88050714D01*
X235989523Y-88003095D01*
X236084761Y-87907857D01*
X236132380Y-87765000D01*
X236132380Y-87526904D01*
X236132380Y-88574523D02*
X236132380Y-88765000D01*
X236084761Y-88860238D01*
X236037142Y-88907857D01*
X235894285Y-89003095D01*
X235703809Y-89050714D01*
X235322857Y-89050714D01*
X235227619Y-89003095D01*
X235180000Y-88955476D01*
X235132380Y-88860238D01*
X235132380Y-88669761D01*
X235180000Y-88574523D01*
X235227619Y-88526904D01*
X235322857Y-88479285D01*
X235560952Y-88479285D01*
X235656190Y-88526904D01*
X235703809Y-88574523D01*
X235751428Y-88669761D01*
X235751428Y-88860238D01*
X235703809Y-88955476D01*
X235656190Y-89003095D01*
X235560952Y-89050714D01*
X217082380Y-87526904D02*
X216082380Y-87526904D01*
X216082380Y-87765000D01*
X216130000Y-87907857D01*
X216225238Y-88003095D01*
X216320476Y-88050714D01*
X216510952Y-88098333D01*
X216653809Y-88098333D01*
X216844285Y-88050714D01*
X216939523Y-88003095D01*
X217034761Y-87907857D01*
X217082380Y-87765000D01*
X217082380Y-87526904D01*
X216510952Y-88669761D02*
X216463333Y-88574523D01*
X216415714Y-88526904D01*
X216320476Y-88479285D01*
X216272857Y-88479285D01*
X216177619Y-88526904D01*
X216130000Y-88574523D01*
X216082380Y-88669761D01*
X216082380Y-88860238D01*
X216130000Y-88955476D01*
X216177619Y-89003095D01*
X216272857Y-89050714D01*
X216320476Y-89050714D01*
X216415714Y-89003095D01*
X216463333Y-88955476D01*
X216510952Y-88860238D01*
X216510952Y-88669761D01*
X216558571Y-88574523D01*
X216606190Y-88526904D01*
X216701428Y-88479285D01*
X216891904Y-88479285D01*
X216987142Y-88526904D01*
X217034761Y-88574523D01*
X217082380Y-88669761D01*
X217082380Y-88860238D01*
X217034761Y-88955476D01*
X216987142Y-89003095D01*
X216891904Y-89050714D01*
X216701428Y-89050714D01*
X216606190Y-89003095D01*
X216558571Y-88955476D01*
X216510952Y-88860238D01*
X198032380Y-87526904D02*
X197032380Y-87526904D01*
X197032380Y-87765000D01*
X197080000Y-87907857D01*
X197175238Y-88003095D01*
X197270476Y-88050714D01*
X197460952Y-88098333D01*
X197603809Y-88098333D01*
X197794285Y-88050714D01*
X197889523Y-88003095D01*
X197984761Y-87907857D01*
X198032380Y-87765000D01*
X198032380Y-87526904D01*
X197032380Y-88431666D02*
X197032380Y-89098333D01*
X198032380Y-88669761D01*
X178982380Y-87526904D02*
X177982380Y-87526904D01*
X177982380Y-87765000D01*
X178030000Y-87907857D01*
X178125238Y-88003095D01*
X178220476Y-88050714D01*
X178410952Y-88098333D01*
X178553809Y-88098333D01*
X178744285Y-88050714D01*
X178839523Y-88003095D01*
X178934761Y-87907857D01*
X178982380Y-87765000D01*
X178982380Y-87526904D01*
X177982380Y-88955476D02*
X177982380Y-88765000D01*
X178030000Y-88669761D01*
X178077619Y-88622142D01*
X178220476Y-88526904D01*
X178410952Y-88479285D01*
X178791904Y-88479285D01*
X178887142Y-88526904D01*
X178934761Y-88574523D01*
X178982380Y-88669761D01*
X178982380Y-88860238D01*
X178934761Y-88955476D01*
X178887142Y-89003095D01*
X178791904Y-89050714D01*
X178553809Y-89050714D01*
X178458571Y-89003095D01*
X178410952Y-88955476D01*
X178363333Y-88860238D01*
X178363333Y-88669761D01*
X178410952Y-88574523D01*
X178458571Y-88526904D01*
X178553809Y-88479285D01*
X155233380Y-87526904D02*
X154233380Y-87526904D01*
X154233380Y-87765000D01*
X154281000Y-87907857D01*
X154376238Y-88003095D01*
X154471476Y-88050714D01*
X154661952Y-88098333D01*
X154804809Y-88098333D01*
X154995285Y-88050714D01*
X155090523Y-88003095D01*
X155185761Y-87907857D01*
X155233380Y-87765000D01*
X155233380Y-87526904D01*
X154233380Y-89003095D02*
X154233380Y-88526904D01*
X154709571Y-88479285D01*
X154661952Y-88526904D01*
X154614333Y-88622142D01*
X154614333Y-88860238D01*
X154661952Y-88955476D01*
X154709571Y-89003095D01*
X154804809Y-89050714D01*
X155042904Y-89050714D01*
X155138142Y-89003095D01*
X155185761Y-88955476D01*
X155233380Y-88860238D01*
X155233380Y-88622142D01*
X155185761Y-88526904D01*
X155138142Y-88479285D01*
X136183380Y-87527904D02*
X135183380Y-87527904D01*
X135183380Y-87766000D01*
X135231000Y-87908857D01*
X135326238Y-88004095D01*
X135421476Y-88051714D01*
X135611952Y-88099333D01*
X135754809Y-88099333D01*
X135945285Y-88051714D01*
X136040523Y-88004095D01*
X136135761Y-87908857D01*
X136183380Y-87766000D01*
X136183380Y-87527904D01*
X135516714Y-88956476D02*
X136183380Y-88956476D01*
X135135761Y-88718380D02*
X135850047Y-88480285D01*
X135850047Y-89099333D01*
X117133380Y-87526904D02*
X116133380Y-87526904D01*
X116133380Y-87765000D01*
X116181000Y-87907857D01*
X116276238Y-88003095D01*
X116371476Y-88050714D01*
X116561952Y-88098333D01*
X116704809Y-88098333D01*
X116895285Y-88050714D01*
X116990523Y-88003095D01*
X117085761Y-87907857D01*
X117133380Y-87765000D01*
X117133380Y-87526904D01*
X116133380Y-88431666D02*
X116133380Y-89050714D01*
X116514333Y-88717380D01*
X116514333Y-88860238D01*
X116561952Y-88955476D01*
X116609571Y-89003095D01*
X116704809Y-89050714D01*
X116942904Y-89050714D01*
X117038142Y-89003095D01*
X117085761Y-88955476D01*
X117133380Y-88860238D01*
X117133380Y-88574523D01*
X117085761Y-88479285D01*
X117038142Y-88431666D01*
X98083380Y-87526904D02*
X97083380Y-87526904D01*
X97083380Y-87765000D01*
X97131000Y-87907857D01*
X97226238Y-88003095D01*
X97321476Y-88050714D01*
X97511952Y-88098333D01*
X97654809Y-88098333D01*
X97845285Y-88050714D01*
X97940523Y-88003095D01*
X98035761Y-87907857D01*
X98083380Y-87765000D01*
X98083380Y-87526904D01*
X97178619Y-88479285D02*
X97131000Y-88526904D01*
X97083380Y-88622142D01*
X97083380Y-88860238D01*
X97131000Y-88955476D01*
X97178619Y-89003095D01*
X97273857Y-89050714D01*
X97369095Y-89050714D01*
X97511952Y-89003095D01*
X98083380Y-88431666D01*
X98083380Y-89050714D01*
X74207380Y-87526904D02*
X73207380Y-87526904D01*
X73207380Y-87765000D01*
X73255000Y-87907857D01*
X73350238Y-88003095D01*
X73445476Y-88050714D01*
X73635952Y-88098333D01*
X73778809Y-88098333D01*
X73969285Y-88050714D01*
X74064523Y-88003095D01*
X74159761Y-87907857D01*
X74207380Y-87765000D01*
X74207380Y-87526904D01*
X74207380Y-89050714D02*
X74207380Y-88479285D01*
X74207380Y-88765000D02*
X73207380Y-88765000D01*
X73350238Y-88669761D01*
X73445476Y-88574523D01*
X73493095Y-88479285D01*
X343376190Y-160287190D02*
X343376190Y-160763380D01*
X343709523Y-159763380D02*
X343376190Y-160287190D01*
X343042857Y-159763380D01*
X342185714Y-160763380D02*
X342757142Y-160763380D01*
X342471428Y-160763380D02*
X342471428Y-159763380D01*
X342566666Y-159906238D01*
X342661904Y-160001476D01*
X342757142Y-160049095D01*
X345312904Y-139957380D02*
X345312904Y-140766904D01*
X345265285Y-140862142D01*
X345217666Y-140909761D01*
X345122428Y-140957380D01*
X344931952Y-140957380D01*
X344836714Y-140909761D01*
X344789095Y-140862142D01*
X344741476Y-140766904D01*
X344741476Y-139957380D01*
X343741476Y-140957380D02*
X344312904Y-140957380D01*
X344027190Y-140957380D02*
X344027190Y-139957380D01*
X344122428Y-140100238D01*
X344217666Y-140195476D01*
X344312904Y-140243095D01*
X345717761Y-167449666D02*
X345765380Y-167592523D01*
X345765380Y-167830619D01*
X345717761Y-167925857D01*
X345670142Y-167973476D01*
X345574904Y-168021095D01*
X345479666Y-168021095D01*
X345384428Y-167973476D01*
X345336809Y-167925857D01*
X345289190Y-167830619D01*
X345241571Y-167640142D01*
X345193952Y-167544904D01*
X345146333Y-167497285D01*
X345051095Y-167449666D01*
X344955857Y-167449666D01*
X344860619Y-167497285D01*
X344813000Y-167544904D01*
X344765380Y-167640142D01*
X344765380Y-167878238D01*
X344813000Y-168021095D01*
X344765380Y-168354428D02*
X345765380Y-168592523D01*
X345051095Y-168783000D01*
X345765380Y-168973476D01*
X344765380Y-169211571D01*
X345765380Y-170116333D02*
X345765380Y-169544904D01*
X345765380Y-169830619D02*
X344765380Y-169830619D01*
X344908238Y-169735380D01*
X345003476Y-169640142D01*
X345051095Y-169544904D01*
X341621166Y-136216380D02*
X341954500Y-135740190D01*
X342192595Y-136216380D02*
X342192595Y-135216380D01*
X341811642Y-135216380D01*
X341716404Y-135264000D01*
X341668785Y-135311619D01*
X341621166Y-135406857D01*
X341621166Y-135549714D01*
X341668785Y-135644952D01*
X341716404Y-135692571D01*
X341811642Y-135740190D01*
X342192595Y-135740190D01*
X341240214Y-135311619D02*
X341192595Y-135264000D01*
X341097357Y-135216380D01*
X340859261Y-135216380D01*
X340764023Y-135264000D01*
X340716404Y-135311619D01*
X340668785Y-135406857D01*
X340668785Y-135502095D01*
X340716404Y-135644952D01*
X341287833Y-136216380D01*
X340668785Y-136216380D01*
X353003380Y-156424333D02*
X352527190Y-156091000D01*
X353003380Y-155852904D02*
X352003380Y-155852904D01*
X352003380Y-156233857D01*
X352051000Y-156329095D01*
X352098619Y-156376714D01*
X352193857Y-156424333D01*
X352336714Y-156424333D01*
X352431952Y-156376714D01*
X352479571Y-156329095D01*
X352527190Y-156233857D01*
X352527190Y-155852904D01*
X353003380Y-157376714D02*
X353003380Y-156805285D01*
X353003380Y-157091000D02*
X352003380Y-157091000D01*
X352146238Y-156995761D01*
X352241476Y-156900523D01*
X352289095Y-156805285D01*
X352027380Y-93519666D02*
X352741666Y-93519666D01*
X352884523Y-93472047D01*
X352979761Y-93376809D01*
X353027380Y-93233952D01*
X353027380Y-93138714D01*
X353027380Y-94519666D02*
X353027380Y-93948238D01*
X353027380Y-94233952D02*
X352027380Y-94233952D01*
X352170238Y-94138714D01*
X352265476Y-94043476D01*
X352313095Y-93948238D01*
X356244142Y-147686833D02*
X356291761Y-147639214D01*
X356339380Y-147496357D01*
X356339380Y-147401119D01*
X356291761Y-147258261D01*
X356196523Y-147163023D01*
X356101285Y-147115404D01*
X355910809Y-147067785D01*
X355767952Y-147067785D01*
X355577476Y-147115404D01*
X355482238Y-147163023D01*
X355387000Y-147258261D01*
X355339380Y-147401119D01*
X355339380Y-147496357D01*
X355387000Y-147639214D01*
X355434619Y-147686833D01*
X355339380Y-148020166D02*
X355339380Y-148686833D01*
X356339380Y-148258261D01*
X341669666Y-141360142D02*
X341717285Y-141407761D01*
X341860142Y-141455380D01*
X341955380Y-141455380D01*
X342098238Y-141407761D01*
X342193476Y-141312523D01*
X342241095Y-141217285D01*
X342288714Y-141026809D01*
X342288714Y-140883952D01*
X342241095Y-140693476D01*
X342193476Y-140598238D01*
X342098238Y-140503000D01*
X341955380Y-140455380D01*
X341860142Y-140455380D01*
X341717285Y-140503000D01*
X341669666Y-140550619D01*
X340812523Y-140455380D02*
X341003000Y-140455380D01*
X341098238Y-140503000D01*
X341145857Y-140550619D01*
X341241095Y-140693476D01*
X341288714Y-140883952D01*
X341288714Y-141264904D01*
X341241095Y-141360142D01*
X341193476Y-141407761D01*
X341098238Y-141455380D01*
X340907761Y-141455380D01*
X340812523Y-141407761D01*
X340764904Y-141360142D01*
X340717285Y-141264904D01*
X340717285Y-141026809D01*
X340764904Y-140931571D01*
X340812523Y-140883952D01*
X340907761Y-140836333D01*
X341098238Y-140836333D01*
X341193476Y-140883952D01*
X341241095Y-140931571D01*
X341288714Y-141026809D01*
X332302142Y-148550333D02*
X332349761Y-148502714D01*
X332397380Y-148359857D01*
X332397380Y-148264619D01*
X332349761Y-148121761D01*
X332254523Y-148026523D01*
X332159285Y-147978904D01*
X331968809Y-147931285D01*
X331825952Y-147931285D01*
X331635476Y-147978904D01*
X331540238Y-148026523D01*
X331445000Y-148121761D01*
X331397380Y-148264619D01*
X331397380Y-148359857D01*
X331445000Y-148502714D01*
X331492619Y-148550333D01*
X331397380Y-149455095D02*
X331397380Y-148978904D01*
X331873571Y-148931285D01*
X331825952Y-148978904D01*
X331778333Y-149074142D01*
X331778333Y-149312238D01*
X331825952Y-149407476D01*
X331873571Y-149455095D01*
X331968809Y-149502714D01*
X332206904Y-149502714D01*
X332302142Y-149455095D01*
X332349761Y-149407476D01*
X332397380Y-149312238D01*
X332397380Y-149074142D01*
X332349761Y-148978904D01*
X332302142Y-148931285D01*
X348019666Y-138627142D02*
X348067285Y-138674761D01*
X348210142Y-138722380D01*
X348305380Y-138722380D01*
X348448238Y-138674761D01*
X348543476Y-138579523D01*
X348591095Y-138484285D01*
X348638714Y-138293809D01*
X348638714Y-138150952D01*
X348591095Y-137960476D01*
X348543476Y-137865238D01*
X348448238Y-137770000D01*
X348305380Y-137722380D01*
X348210142Y-137722380D01*
X348067285Y-137770000D01*
X348019666Y-137817619D01*
X347162523Y-138055714D02*
X347162523Y-138722380D01*
X347400619Y-137674761D02*
X347638714Y-138389047D01*
X347019666Y-138389047D01*
X354212142Y-147686833D02*
X354259761Y-147639214D01*
X354307380Y-147496357D01*
X354307380Y-147401119D01*
X354259761Y-147258261D01*
X354164523Y-147163023D01*
X354069285Y-147115404D01*
X353878809Y-147067785D01*
X353735952Y-147067785D01*
X353545476Y-147115404D01*
X353450238Y-147163023D01*
X353355000Y-147258261D01*
X353307380Y-147401119D01*
X353307380Y-147496357D01*
X353355000Y-147639214D01*
X353402619Y-147686833D01*
X353307380Y-148020166D02*
X353307380Y-148639214D01*
X353688333Y-148305880D01*
X353688333Y-148448738D01*
X353735952Y-148543976D01*
X353783571Y-148591595D01*
X353878809Y-148639214D01*
X354116904Y-148639214D01*
X354212142Y-148591595D01*
X354259761Y-148543976D01*
X354307380Y-148448738D01*
X354307380Y-148163023D01*
X354259761Y-148067785D01*
X354212142Y-148020166D01*
X348751142Y-157719833D02*
X348798761Y-157672214D01*
X348846380Y-157529357D01*
X348846380Y-157434119D01*
X348798761Y-157291261D01*
X348703523Y-157196023D01*
X348608285Y-157148404D01*
X348417809Y-157100785D01*
X348274952Y-157100785D01*
X348084476Y-157148404D01*
X347989238Y-157196023D01*
X347894000Y-157291261D01*
X347846380Y-157434119D01*
X347846380Y-157529357D01*
X347894000Y-157672214D01*
X347941619Y-157719833D01*
X347941619Y-158100785D02*
X347894000Y-158148404D01*
X347846380Y-158243642D01*
X347846380Y-158481738D01*
X347894000Y-158576976D01*
X347941619Y-158624595D01*
X348036857Y-158672214D01*
X348132095Y-158672214D01*
X348274952Y-158624595D01*
X348846380Y-158053166D01*
X348846380Y-158672214D01*
X337890142Y-157719833D02*
X337937761Y-157672214D01*
X337985380Y-157529357D01*
X337985380Y-157434119D01*
X337937761Y-157291261D01*
X337842523Y-157196023D01*
X337747285Y-157148404D01*
X337556809Y-157100785D01*
X337413952Y-157100785D01*
X337223476Y-157148404D01*
X337128238Y-157196023D01*
X337033000Y-157291261D01*
X336985380Y-157434119D01*
X336985380Y-157529357D01*
X337033000Y-157672214D01*
X337080619Y-157719833D01*
X337985380Y-158672214D02*
X337985380Y-158100785D01*
X337985380Y-158386500D02*
X336985380Y-158386500D01*
X337128238Y-158291261D01*
X337223476Y-158196023D01*
X337271095Y-158100785D01*
M02*
