M48
; DRILL file {KiCad (5.1.4)-1} date 19/4/2022 23:21:52
; FORMAT={-:-/ absolute / inch / decimal}
; #@! TF.CreationDate,2022-04-19T23:21:52-04:00
; #@! TF.GenerationSoftware,Kicad,Pcbnew,(5.1.4)-1
; #@! TF.FileFunction,NonPlated,1,2,NPTH
FMAT,2
INCH
T1C0.0689
T2C0.1181
T3C0.1200
T4C0.1570
%
G90
G05
T1
X4.115Y-3.315
X4.515Y-3.315
X8.24Y-5.755
X8.64Y-5.755
X13.115Y-7.44
X13.515Y-7.44
X8.425Y-4.255
X8.825Y-4.255
X4.395Y-7.255
X4.795Y-7.255
X7.3Y-3.315
X7.7Y-3.315
X5.425Y-4.255
X5.825Y-4.255
X14.05Y-5.755
X14.45Y-5.755
X10.49Y-5.755
X10.89Y-5.755
X4.49Y-5.755
X4.89Y-5.755
X6.925Y-4.255
X7.325Y-4.255
X3.365Y-3.315
X3.765Y-3.315
X2.615Y-5.005
X3.015Y-5.005
X10.675Y-7.255
X11.075Y-7.255
X4.865Y-6.505
X5.265Y-6.505
X6.55Y-5.005
X6.95Y-5.005
X9.365Y-6.505
X9.765Y-6.505
X9.74Y-5.755
X10.14Y-5.755
X2.425Y-3.315
X2.825Y-3.315
X6.365Y-6.505
X6.765Y-6.505
X3.925Y-4.255
X4.325Y-4.255
X7.49Y-5.755
X7.89Y-5.755
X9.175Y-4.255
X9.575Y-4.255
X4.115Y-6.505
X4.515Y-6.505
X3.74Y-5.755
X4.14Y-5.755
X14.05Y-5.005
X14.45Y-5.005
X12.55Y-4.255
X12.95Y-4.255
X11.24Y-5.755
X11.64Y-5.755
X8.99Y-5.755
X9.39Y-5.755
X8.8Y-3.315
X9.2Y-3.315
X10.865Y-6.505
X11.265Y-6.505
X8.8Y-5.005
X9.2Y-5.005
X9.74Y-3.315
X10.14Y-3.315
X14.05Y-4.255
X14.45Y-4.255
X11.8Y-5.005
X12.2Y-5.005
X7.21Y-7.255
X7.61Y-7.255
X3.175Y-4.255
X3.575Y-4.255
X12.46Y-5.755
X12.86Y-5.755
X10.675Y-4.255
X11.075Y-4.255
X11.425Y-7.255
X11.825Y-7.255
X4.675Y-4.255
X5.075Y-4.255
X11.24Y-3.315
X11.64Y-3.315
X13.115Y-6.69
X13.515Y-6.69
X12.925Y-3.315
X13.325Y-3.315
X4.3Y-5.005
X4.7Y-5.005
X7.865Y-6.505
X8.265Y-6.505
X5.615Y-6.505
X6.015Y-6.505
X9.925Y-4.255
X10.325Y-4.255
X3.55Y-5.005
X3.95Y-5.005
X5.615Y-3.315
X6.015Y-3.315
X10.115Y-6.505
X10.515Y-6.505
X12.74Y-5.005
X13.14Y-5.005
X5.8Y-5.005
X6.2Y-5.005
X10.49Y-3.315
X10.89Y-3.315
X5.99Y-5.755
X6.39Y-5.755
X8.615Y-6.505
X9.015Y-6.505
X14.05Y-6.505
X14.45Y-6.505
X11.425Y-4.255
X11.825Y-4.255
X2.895Y-6.505
X3.295Y-6.505
X5.24Y-5.755
X5.64Y-5.755
X2.52Y-7.255
X2.92Y-7.255
X7.675Y-4.255
X8.075Y-4.255
X8.05Y-3.315
X8.45Y-3.315
X8.05Y-5.005
X8.45Y-5.005
X5.05Y-5.005
X5.45Y-5.005
X13.865Y-7.44
X14.265Y-7.44
X4.865Y-3.315
X5.265Y-3.315
X2.425Y-4.255
X2.825Y-4.255
X6.175Y-4.255
X6.575Y-4.255
X9.55Y-5.005
X9.95Y-5.005
X2.71Y-5.755
X3.11Y-5.755
X3.455Y-7.255
X3.855Y-7.255
X12.365Y-7.44
X12.765Y-7.44
X7.115Y-6.505
X7.515Y-6.505
X6.55Y-3.315
X6.95Y-3.315
X9.93Y-7.255
X10.33Y-7.255
X11.99Y-3.315
X12.39Y-3.315
X7.3Y-5.005
X7.7Y-5.005
X11.05Y-5.005
X11.45Y-5.005
X11.895Y-6.505
X12.295Y-6.505
X10.3Y-5.005
X10.7Y-5.005
X6.74Y-5.755
X7.14Y-5.755
T2
X10.915Y-6.405
X11.165Y-6.305
X8.85Y-4.905
X9.1Y-4.805
X9.79Y-3.215
X10.04Y-3.115
X14.1Y-4.155
X14.35Y-4.055
X11.85Y-4.905
X12.1Y-4.805
X7.26Y-7.155
X7.51Y-7.055
X3.225Y-4.155
X3.475Y-4.055
X12.51Y-5.655
X12.76Y-5.555
X10.725Y-4.155
X10.975Y-4.055
X11.475Y-7.155
X11.725Y-7.055
X4.725Y-4.155
X4.975Y-4.055
X11.29Y-3.215
X11.54Y-3.115
X13.165Y-6.59
X13.415Y-6.49
X12.975Y-3.215
X13.225Y-3.115
X4.35Y-4.905
X4.6Y-4.805
X7.915Y-6.405
X8.165Y-6.305
X5.665Y-6.405
X5.915Y-6.305
X9.975Y-4.155
X10.225Y-4.055
X3.6Y-4.905
X3.85Y-4.805
X5.665Y-3.215
X5.915Y-3.115
X10.165Y-6.405
X10.415Y-6.305
X12.79Y-4.905
X13.04Y-4.805
X5.85Y-4.905
X6.1Y-4.805
X10.54Y-3.215
X10.79Y-3.115
X6.04Y-5.655
X6.29Y-5.555
X8.665Y-6.405
X8.915Y-6.305
X14.1Y-6.405
X14.35Y-6.305
X11.475Y-4.155
X11.725Y-4.055
X2.945Y-6.405
X3.195Y-6.305
X5.29Y-5.655
X5.54Y-5.555
X2.57Y-7.155
X2.82Y-7.055
X7.725Y-4.155
X7.975Y-4.055
X8.1Y-3.215
X8.35Y-3.115
X8.1Y-4.905
X8.35Y-4.805
X5.1Y-4.905
X5.35Y-4.805
X13.915Y-7.34
X14.165Y-7.24
X4.915Y-3.215
X5.165Y-3.115
X2.475Y-4.155
X2.725Y-4.055
X6.225Y-4.155
X6.475Y-4.055
X9.6Y-4.905
X9.85Y-4.805
X2.76Y-5.655
X3.01Y-5.555
X3.505Y-7.155
X3.755Y-7.055
X12.415Y-7.34
X12.665Y-7.24
X7.165Y-6.405
X7.415Y-6.305
X6.6Y-3.215
X6.85Y-3.115
X9.98Y-7.155
X10.23Y-7.055
X12.04Y-3.215
X12.29Y-3.115
X7.35Y-4.905
X7.6Y-4.805
X11.1Y-4.905
X11.35Y-4.805
X11.945Y-6.405
X12.195Y-6.305
X10.35Y-4.905
X10.6Y-4.805
X6.79Y-5.655
X7.04Y-5.555
X4.165Y-3.215
X4.415Y-3.115
X8.29Y-5.655
X8.54Y-5.555
X13.165Y-7.34
X13.415Y-7.24
X8.475Y-4.155
X8.725Y-4.055
X4.445Y-7.155
X4.695Y-7.055
X7.35Y-3.215
X7.6Y-3.115
X5.475Y-4.155
X5.725Y-4.055
X14.1Y-5.655
X14.35Y-5.555
X10.54Y-5.655
X10.79Y-5.555
X4.54Y-5.655
X4.79Y-5.555
X6.975Y-4.155
X7.225Y-4.055
X3.415Y-3.215
X3.665Y-3.115
X2.665Y-4.905
X2.915Y-4.805
X10.725Y-7.155
X10.975Y-7.055
X4.915Y-6.405
X5.165Y-6.305
X6.6Y-4.905
X6.85Y-4.805
X9.415Y-6.405
X9.665Y-6.305
X9.79Y-5.655
X10.04Y-5.555
X2.475Y-3.215
X2.725Y-3.115
X6.415Y-6.405
X6.665Y-6.305
X3.975Y-4.155
X4.225Y-4.055
X7.54Y-5.655
X7.79Y-5.555
X9.225Y-4.155
X9.475Y-4.055
X4.165Y-6.405
X4.415Y-6.305
X3.79Y-5.655
X4.04Y-5.555
X14.1Y-4.905
X14.35Y-4.805
X12.6Y-4.155
X12.85Y-4.055
X11.29Y-5.655
X11.54Y-5.555
X9.04Y-5.655
X9.29Y-5.555
X8.85Y-3.215
X9.1Y-3.115
T3
X12.28Y-3.98
X13.22Y-3.98
X5.4415Y-6.98
X9.3785Y-6.98
X12.19Y-5.48
X13.13Y-5.48
X2.625Y-6.23
X3.565Y-6.23
T4
X8.065Y-6.505
X5.815Y-6.505
X10.125Y-4.255
X3.75Y-5.005
X5.815Y-3.315
X10.315Y-6.505
X12.94Y-5.005
X6.0Y-5.005
X10.69Y-3.315
X6.19Y-5.755
X8.815Y-6.505
X14.25Y-6.505
X11.625Y-4.255
X2.625Y-6.83
X3.095Y-6.505
X3.565Y-6.83
X5.44Y-5.755
X2.72Y-7.255
X7.875Y-4.255
X8.25Y-3.315
X8.25Y-5.005
X5.25Y-5.005
X14.065Y-7.44
X5.065Y-3.315
X2.625Y-4.255
X6.375Y-4.255
X9.75Y-5.005
X2.91Y-5.755
X3.655Y-7.255
X12.565Y-7.44
X7.315Y-6.505
X6.75Y-3.315
X10.13Y-7.255
X12.19Y-3.315
X7.5Y-5.005
X11.25Y-5.005
X12.095Y-6.505
X10.5Y-5.005
X6.94Y-5.755
X4.315Y-3.315
X8.44Y-5.755
X13.315Y-7.44
X8.625Y-4.255
X4.595Y-7.255
X7.5Y-3.315
X5.625Y-4.255
X14.25Y-5.755
X10.69Y-5.755
X4.69Y-5.755
X7.125Y-4.255
X3.565Y-3.315
X2.815Y-5.005
X10.875Y-7.255
X5.065Y-6.505
X6.75Y-5.005
X9.565Y-6.505
X9.94Y-5.755
X2.625Y-3.315
X6.565Y-6.505
X4.125Y-4.255
X7.69Y-5.755
X9.375Y-4.255
X4.315Y-6.505
X3.94Y-5.755
X14.25Y-5.005
X12.28Y-4.58
X12.75Y-4.255
X13.22Y-4.58
X11.44Y-5.755
X9.19Y-5.755
X9.0Y-3.315
X11.065Y-6.505
X9.0Y-5.005
X9.94Y-3.315
X14.25Y-4.255
X12.0Y-5.005
X5.4415Y-7.58
X7.41Y-7.255
X9.3785Y-7.58
X3.375Y-4.255
X12.19Y-6.08
X12.66Y-5.755
X13.13Y-6.08
X10.875Y-4.255
X11.625Y-7.255
X4.875Y-4.255
X11.44Y-3.315
X13.315Y-6.69
X13.125Y-3.315
X4.5Y-5.005
T0
M30
