M48
; DRILL file {KiCad (5.1.4)-1} date 19/4/2022 23:21:52
; FORMAT={-:-/ absolute / inch / decimal}
; #@! TF.CreationDate,2022-04-19T23:21:52-04:00
; #@! TF.GenerationSoftware,Kicad,Pcbnew,(5.1.4)-1
; #@! TF.FileFunction,Plated,1,2,PTH
FMAT,2
INCH
T1C0.0157
%
G90
G05
T1
X2.29Y-7.725
X2.31Y-7.595
X2.345Y-3.29
X2.345Y-4.235
X2.445Y-7.07
X2.535Y-5.005
X2.63Y-5.74
X2.815Y-6.495
X3.0Y-4.15
X3.285Y-3.32
X3.3Y-7.155
X3.47Y-5.01
X3.66Y-5.74
X3.85Y-4.27
X3.945Y-6.405
X4.035Y-3.325
X4.22Y-5.0
X4.315Y-7.08
X4.41Y-5.74
X4.595Y-4.255
X4.695Y-6.41
X4.785Y-3.305
X4.97Y-4.995
X5.08Y-5.655
X5.35Y-4.23
X5.455Y-6.41
X5.535Y-3.3
X5.72Y-5.005
X5.91Y-5.74
X6.095Y-4.24
X6.2Y-6.405
X6.375Y-3.215
X6.47Y-4.985
X6.58Y-5.655
X6.84Y-4.25
X6.95Y-6.405
X7.055Y-7.155
X7.22Y-3.32
X7.22Y-4.99
X7.41Y-5.75
X7.595Y-4.25
X7.7Y-6.405
X7.97Y-3.3
X7.97Y-4.99
X8.16Y-5.74
X8.345Y-4.24
X8.45Y-6.41
X8.72Y-3.305
X8.72Y-4.99
X8.91Y-5.745
X9.095Y-4.25
X9.285Y-6.485
X9.47Y-4.995
X9.58Y-3.215
X9.66Y-5.735
X9.775Y-7.16
X9.845Y-4.24
X10.035Y-6.49
X10.22Y-4.995
X10.315Y-3.215
X10.41Y-5.74
X10.515Y-7.155
X10.595Y-4.25
X10.715Y-6.41
X10.97Y-4.995
X11.075Y-3.215
X11.16Y-5.74
X11.345Y-4.24
X11.345Y-7.075
X11.72Y-4.995
X11.815Y-6.49
X11.91Y-3.315
X12.285Y-7.26
X12.305Y-5.655
X12.47Y-4.25
X12.66Y-5.015
X12.76Y-3.215
X12.905Y-6.885
X12.905Y-6.955
X12.955Y-6.59
X12.955Y-7.34
X13.265Y-5.23
X13.275Y-4.48
X13.455Y-5.815
X13.575Y-5.98
X13.675Y-5.82
X13.71Y-5.98
X13.7252Y-5.7298
X13.785Y-7.25
X13.89Y-6.405
X13.93Y-4.48
X13.94Y-5.23
X13.97Y-4.23
X13.97Y-4.99
X13.97Y-5.585
X13.9985Y-5.84
X14.0298Y-5.8098
X14.395Y-7.665
X14.395Y-7.77
X14.51Y-6.025
X14.65Y-6.155
T0
M30
